<svg version="1.1" xmlns="http://www.w3.org/2000/svg" xmlns:xlink="http://www.w3.org/1999/xlink" width="741" height="570.75"><style xmlns="http://www.w3.org/1999/xhtml"></style><defs/><g transform="translate(0,0)"><g><rect fill="#FFFFFF" stroke="none" x="0" y="0" width="741" height="570.75"/></g><g transform="translate(0,0) matrix(1,0,0,1,591,391.25)"><g><g transform="translate(0,0) scale(1,0.75)"><g><path fill="#FFFFFF" stroke="none" stroke-dasharray="1.7976931348623157e+308" d="M 0 0 L 100 0 Q 100 0 100 0 L 100 100 Q 100 100 100 100 L 0 100 Q 0 100 0 100 L 0 0 Q 0 0 0 0 Z"/><g transform="scale(1,1.3333333333333333)"><path fill="none" stroke="none" stroke-dasharray="1.7976931348623157e+308" d="M 0 0 L 100 0 Q 100 0 100 0 L 100 75 Q 100 75 100 75 L 0 75 Q 0 75 0 75 L 0 0 Q 0 0 0 0 Z"/><path fill="none" stroke="#333333" stroke-dasharray="1.7976931348623157e+308" d="M 0 0 L 100 0 Q 100 0 100 0 L 100 75 Q 100 75 100 75 L 0 75 Q 0 75 0 75 L 0 0 Q 0 0 0 0 Z" stroke-miterlimit="10" stroke-width="2"/></g></g></g></g></g><g transform="matrix(1,0,0,1,601,415)"><g><g><rect fill="rgb(0,0,0)" stroke="none" x="0" y="0" width="81" height="28" fill-opacity="0"/></g></g><g><g><rect fill="rgb(0,0,0)" stroke="none" x="0" y="0" width="81" height="28" fill-opacity="0"/></g></g><g><g><rect fill="rgb(0,0,0)" stroke="none" x="4.140625" y="0" width="73" height="28" fill-opacity="0"/></g></g><g><g><rect fill="rgb(0,0,0)" stroke="none" x="4.140625" y="0" width="73" height="28" fill-opacity="0"/></g><text fill="rgb(0, 0, 0)" stroke="none" font-family="Arial" font-size="12px" font-style="normal" font-weight="normal" text-decoration="" line-height="14px" x="4.140625" y="12">Output</text><text fill="rgb(0, 0, 0)" stroke="none" font-family="Arial" font-size="12px" font-style="normal" font-weight="normal" text-decoration="" line-height="14px" x="43.484375" y="12">Grade</text><text fill="rgb(0, 0, 0)" stroke="none" font-family="Arial" font-size="12px" font-style="normal" font-weight="normal" text-decoration="" line-height="14px" x="10.484375" y="26">Information</text></g></g><g transform="translate(0.5,0.5) matrix(1,0,0,1,580,80.5)"><g><g><g><path fill="none" stroke="none" stroke-dasharray="1.7976931348623157e+308" d="M 10 0 L 110 0 Q 120 0 120 10 L 120 80 Q 120 90 110 90 L 10 90 Q 0 90 0 80 L 0 10 Q 0 0 10 0 Z"/><g transform="scale(1,1)"><path fill="#FFFFFF" stroke="#000000" stroke-dasharray="1.7976931348623157e+308" d="M 10 0 L 110 0 Q 120 0 120 10 L 120 80 Q 120 90 110 90 L 10 90 Q 0 90 0 80 L 0 10 Q 0 0 10 0 Z" stroke-miterlimit="10"/></g></g><g><path fill="none" stroke="none" stroke-dasharray="1.7976931348623157e+308" d="M 10 5 L 110 5 Q 115 5 115 10 L 115 80 Q 115 85 110 85 L 10 85 Q 5 85 5 80 L 5 10 Q 5 5 10 5 Z"/><g transform="scale(1,1)"><path fill="#FFFFFF" stroke="#000000" stroke-dasharray="1.7976931348623157e+308" d="M 10 5 L 110 5 Q 115 5 115 10 L 115 80 Q 115 85 110 85 L 10 85 Q 5 85 5 80 L 5 10 Q 5 5 10 5 Z" stroke-miterlimit="10"/></g></g></g></g></g><g transform="matrix(1,0,0,1,584,112)"><g><g><rect fill="rgb(0,0,0)" stroke="none" x="0" y="0" width="113" height="28" fill-opacity="0"/></g></g><g><g><rect fill="rgb(0,0,0)" stroke="none" x="0" y="0" width="113" height="28" fill-opacity="0"/></g></g><g><g><rect fill="rgb(0,0,0)" stroke="none" x="4.8125" y="0" width="103" height="28" fill-opacity="0"/></g></g><g><g><rect fill="rgb(0,0,0)" stroke="none" x="4.8125" y="0" width="103" height="28" fill-opacity="0"/></g><text fill="rgb(0, 0, 0)" stroke="none" font-family="Arial" font-size="12px" font-style="normal" font-weight="normal" text-decoration="" line-height="14px" x="70.15625" y="12">Docker</text><text fill="rgb(0, 0, 0)" stroke="none" font-family="Arial" font-size="12px" font-style="normal" font-weight="normal" text-decoration="" line-height="14px" x="30.484375" y="26">Container</text></g><g><g><rect fill="rgb(0,0,0)" stroke="none" x="4.8125" y="0" width="62" height="14" fill-opacity="0"/></g><text fill="rgb(0, 0, 0)" stroke="none" font-family="Arial" font-size="12px" font-style="normal" font-weight="700" text-decoration="" line-height="14px" x="4.8125" y="12">AutoGrade</text></g></g><g transform="translate(0,0) matrix(6.123233995736766e-17,1,-1,6.123233995736766e-17,665,265)"><g><g transform="translate(0,0) scale(1,0.5)"><g><g transform="scale(1,2)"><path fill="#FFFFFF" stroke="none" stroke-dasharray="1.7976931348623157e+308" d="M 0 15 L 75 15 L 75 0 L 100 25 L 75 50 L 75 35 L 0 35 L 0 15 Z"/><path fill="none" stroke="#333333" stroke-dasharray="1.7976931348623157e+308" d="M 0 15 L 75 15 L 75 0 L 100 25 L 75 50 L 75 35 L 0 35 L 0 15 Z" stroke-miterlimit="10" stroke-width="2"/></g></g></g></g></g><g transform="translate(0.5,0.5) matrix(1,0,0,1,288,80.5)"><g><g><g><path fill="none" stroke="none" stroke-dasharray="1.7976931348623157e+308" d="M 10 0 L 110 0 Q 120 0 120 10 L 120 80 Q 120 90 110 90 L 10 90 Q 0 90 0 80 L 0 10 Q 0 0 10 0 Z"/><g transform="scale(1,1)"><path fill="#FFFFFF" stroke="#000000" stroke-dasharray="1.7976931348623157e+308" d="M 10 0 L 110 0 Q 120 0 120 10 L 120 80 Q 120 90 110 90 L 10 90 Q 0 90 0 80 L 0 10 Q 0 0 10 0 Z" stroke-miterlimit="10"/></g></g><g><path fill="none" stroke="none" stroke-dasharray="1.7976931348623157e+308" d="M 10 5 L 110 5 Q 115 5 115 10 L 115 80 Q 115 85 110 85 L 10 85 Q 5 85 5 80 L 5 10 Q 5 5 10 5 Z"/><g transform="scale(1,1)"><path fill="#FFFFFF" stroke="#000000" stroke-dasharray="1.7976931348623157e+308" d="M 10 5 L 110 5 Q 115 5 115 10 L 115 80 Q 115 85 110 85 L 10 85 Q 5 85 5 80 L 5 10 Q 5 5 10 5 Z" stroke-miterlimit="10"/></g></g></g></g></g><g transform="matrix(1,0,0,1,292,112)"><g><g><rect fill="rgb(0,0,0)" stroke="none" x="0" y="0" width="113" height="28" fill-opacity="0"/></g></g><g><g><rect fill="rgb(0,0,0)" stroke="none" x="0" y="0" width="113" height="28" fill-opacity="0"/></g></g><g><g><rect fill="rgb(0,0,0)" stroke="none" x="16.46875" y="0" width="81" height="28" fill-opacity="0"/></g></g><g><g><rect fill="rgb(0,0,0)" stroke="none" x="16.46875" y="0" width="81" height="28" fill-opacity="0"/></g><text fill="rgb(0, 0, 0)" stroke="none" font-family="Arial" font-size="12px" font-style="normal" font-weight="normal" text-decoration="" line-height="14px" x="16.46875" y="12">Github</text><text fill="rgb(0, 0, 0)" stroke="none" font-family="Arial" font-size="12px" font-style="normal" font-weight="normal" text-decoration="" line-height="14px" x="55.15625" y="12">Student</text><text fill="rgb(0, 0, 0)" stroke="none" font-family="Arial" font-size="12px" font-style="normal" font-weight="normal" text-decoration="" line-height="14px" x="25.140625" y="26">Assignment</text></g></g><g transform="translate(0,0) matrix(1,0,0,1,437,96.5)"><g><g transform="translate(0,0) scale(1,0.5)"><g><g transform="scale(1,2)"><path fill="#FFFFFF" stroke="none" stroke-dasharray="1.7976931348623157e+308" d="M 0 15 L 75 15 L 75 0 L 100 25 L 75 50 L 75 35 L 0 35 L 0 15 Z"/><path fill="none" stroke="#333333" stroke-dasharray="1.7976931348623157e+308" d="M 0 15 L 75 15 L 75 0 L 100 25 L 75 50 L 75 35 L 0 35 L 0 15 Z" stroke-miterlimit="10" stroke-width="2"/></g></g></g></g></g><g transform="translate(0.5,0.5) matrix(1,0,0,1,33,80.5)"><g><g transform="translate(0,0) scale(1.0128285181643562,1.0083620265617315) translate(-0.0001780171,0)"><g><g><path fill="#3966A0" stroke="rgb(0,0,0)" stroke-dasharray="1.7976931348623157e+308" d="M 62.176 71.979 C 62.134 58.362 55.184 48.994 43.067 45.44 C 50.425 41.258 55.403 33.353 55.403 24.302 C 55.402 10.901 44.501 0 31.101 0 C 17.702 0 6.8 10.901 6.8 24.302 C 6.8 33.385 11.812 41.314 19.212 45.484 C 7.176 49.108 0.07 58.58 0.026 71.98 C -0.045 72.514 -0.04 73.694 1 75.043 C 4.212 79.208 14.339 81.32 31.101 81.32 C 47.863 81.32 57.992 79.208 61.203 75.043 C 62.242 73.693 62.248 72.514 62.176 71.979 Z" stroke-opacity="0" stroke-miterlimit="10"/></g><g><path fill="#FFFFFF" stroke="rgb(0,0,0)" stroke-dasharray="1.7976931348623157e+308" d="M 31.101 3 C 19.356 3 9.8 12.556 9.8 24.302 C 9.8 33.578 15.771 41.467 24.063 44.383 C 26.27 45.159 28.632 45.604 31.101 45.604 C 33.587 45.604 35.966 45.153 38.187 44.366 C 46.455 41.436 52.402 33.561 52.402 24.303 C 52.402 12.556 42.847 3 31.101 3 Z" opacity="0.93" stroke-opacity="0" stroke-miterlimit="10"/></g><g><path fill="#FFFFFF" stroke="rgb(0,0,0)" stroke-dasharray="1.7976931348623157e+308" d="M 3.026 72.104 L 3.005 72.453 C 3.026 72.606 3.126 72.966 3.583 73.455 C 4.948 74.918 10.362 78.321 31.101 78.321 C 52.57 78.321 57.642 74.748 58.828 73.212 C 59.102 72.855 59.226 72.487 59.226 72.487 L 59.176 72.104 C 59.176 58.426 51.738 49.723 38.495 47.45 C 36.161 48.197 33.678 48.604 31.099 48.604 C 28.541 48.604 26.076 48.204 23.759 47.467 C 10.643 49.795 3.026 58.637 3.026 72.104 Z" opacity="0.93" stroke-opacity="0" stroke-miterlimit="10"/></g></g></g></g></g><g transform="matrix(1,0,0,1,39,165)"><g><g><rect fill="rgb(0,0,0)" stroke="none" x="0" y="0" width="51" height="14" fill-opacity="0"/></g></g><g><g><rect fill="rgb(0,0,0)" stroke="none" x="0" y="0" width="51" height="14" fill-opacity="0"/></g></g><g><g><rect fill="rgb(0,0,0)" stroke="none" x="2.984375" y="0" width="45" height="14" fill-opacity="0"/></g></g><g><g><rect fill="rgb(0,0,0)" stroke="none" x="2.984375" y="0" width="45" height="14" fill-opacity="0"/></g><text fill="rgb(0, 0, 0)" stroke="none" font-family="Arial" font-size="12px" font-style="normal" font-weight="normal" text-decoration="" line-height="14px" x="2.984375" y="12">Student</text></g></g><g transform="translate(0,0) matrix(1,0,0,1,143,96.5)"><g><g transform="translate(0,0) scale(1,0.5)"><g><g transform="scale(1,2)"><path fill="#FFFFFF" stroke="none" stroke-dasharray="1.7976931348623157e+308" d="M 0 15 L 75 15 L 75 0 L 100 25 L 75 50 L 75 35 L 0 35 L 0 15 Z"/><path fill="none" stroke="#333333" stroke-dasharray="1.7976931348623157e+308" d="M 0 15 L 75 15 L 75 0 L 100 25 L 75 50 L 75 35 L 0 35 L 0 15 Z" stroke-miterlimit="10" stroke-width="2"/></g></g></g></g></g><g transform="matrix(1,0,0,1,16,21)"><g><g><rect fill="rgb(0,0,0)" stroke="none" x="0" y="0" width="106" height="42" fill-opacity="0"/></g></g><g><g><rect fill="rgb(0,0,0)" stroke="none" x="0" y="0" width="106" height="42" fill-opacity="0"/></g></g><g><g><rect fill="rgb(0,0,0)" stroke="none" x="6.953125" y="0" width="92" height="42" fill-opacity="0"/></g></g><g><g><rect fill="rgb(0,0,0)" stroke="none" x="6.953125" y="0" width="92" height="42" fill-opacity="0"/></g><text fill="rgb(0, 0, 0)" stroke="none" font-family="Arial" font-size="12px" font-style="normal" font-weight="normal" text-decoration="" line-height="14px" x="6.953125" y="12">A</text><text fill="rgb(0, 0, 0)" stroke="none" font-family="Arial" font-size="12px" font-style="normal" font-weight="normal" text-decoration="" line-height="14px" x="17.625" y="12">student</text><text fill="rgb(0, 0, 0)" stroke="none" font-family="Arial" font-size="12px" font-style="normal" font-weight="normal" text-decoration="" line-height="14px" x="60.3125" y="12">pushes</text><text fill="rgb(0, 0, 0)" stroke="none" font-family="Arial" font-size="12px" font-style="normal" font-weight="normal" text-decoration="" line-height="14px" x="13.96875" y="26">code</text><text fill="rgb(0, 0, 0)" stroke="none" font-family="Arial" font-size="12px" font-style="normal" font-weight="normal" text-decoration="" line-height="14px" x="43.3125" y="26">to</text><text fill="rgb(0, 0, 0)" stroke="none" font-family="Arial" font-size="12px" font-style="normal" font-weight="normal" text-decoration="" line-height="14px" x="56.65625" y="26">Github</text><text fill="rgb(0, 0, 0)" stroke="none" font-family="Arial" font-size="12px" font-style="normal" font-weight="normal" text-decoration="" line-height="14px" x="26.65625" y="40">repository</text></g></g><g transform="matrix(1,0,0,1,364,28)"><g><g><rect fill="rgb(0,0,0)" stroke="none" x="0" y="0" width="147" height="14" fill-opacity="0"/></g></g><g><g/></g><g><g/></g><g><g/></g><g><g/></g></g><g transform="matrix(1,0,0,1,290,21)"><g><g><rect fill="rgb(0,0,0)" stroke="none" x="0" y="0" width="127" height="42" fill-opacity="0"/></g></g><g><g><rect fill="rgb(0,0,0)" stroke="none" x="0" y="0" width="127" height="42" fill-opacity="0"/></g></g><g><g><rect fill="rgb(0,0,0)" stroke="none" x="5.796875" y="0" width="115" height="42" fill-opacity="0"/></g></g><g><g><rect fill="rgb(0,0,0)" stroke="none" x="5.796875" y="0" width="115" height="42" fill-opacity="0"/></g><text fill="rgb(0, 0, 0)" stroke="none" font-family="Arial" font-size="12px" font-style="normal" font-weight="normal" text-decoration="" line-height="14px" x="5.796875" y="12">The</text><text fill="rgb(0, 0, 0)" stroke="none" font-family="Arial" font-size="12px" font-style="normal" font-weight="normal" text-decoration="" line-height="14px" x="29.796875" y="12">Github</text><text fill="rgb(0, 0, 0)" stroke="none" font-family="Arial" font-size="12px" font-style="normal" font-weight="normal" text-decoration="" line-height="14px" x="68.484375" y="12">repository</text><text fill="rgb(0, 0, 0)" stroke="none" font-family="Arial" font-size="12px" font-style="normal" font-weight="normal" text-decoration="" line-height="14px" x="17.796875" y="26">is</text><text fill="rgb(0, 0, 0)" stroke="none" font-family="Arial" font-size="12px" font-style="normal" font-weight="normal" text-decoration="" line-height="14px" x="29.796875" y="26">mounted</text><text fill="rgb(0, 0, 0)" stroke="none" font-family="Arial" font-size="12px" font-style="normal" font-weight="normal" text-decoration="" line-height="14px" x="79.828125" y="26">in</text><text fill="rgb(0, 0, 0)" stroke="none" font-family="Arial" font-size="12px" font-style="normal" font-weight="normal" text-decoration="" line-height="14px" x="92.5" y="26">the</text><text fill="rgb(0, 0, 0)" stroke="none" font-family="Arial" font-size="12px" font-style="normal" font-weight="normal" text-decoration="" line-height="14px" x="8.125" y="40">AutoGrade</text><text fill="rgb(0, 0, 0)" stroke="none" font-family="Arial" font-size="12px" font-style="normal" font-weight="normal" text-decoration="" line-height="14px" x="69.484375" y="40">container</text></g></g><g transform="matrix(1,0,0,1,584,179)"><g><g><rect fill="rgb(0,0,0)" stroke="none" x="0" y="0" width="115" height="70" fill-opacity="0"/></g></g><g><g><rect fill="rgb(0,0,0)" stroke="none" x="0" y="0" width="115" height="70" fill-opacity="0"/></g></g><g><g><rect fill="rgb(0,0,0)" stroke="none" x="2.125" y="0" width="110" height="70" fill-opacity="0"/></g></g><g><g><rect fill="rgb(0,0,0)" stroke="none" x="2.125" y="0" width="110" height="70" fill-opacity="0"/></g><text fill="rgb(0, 0, 0)" stroke="none" font-family="Arial" font-size="12px" font-style="normal" font-weight="normal" text-decoration="" line-height="14px" x="16.671875" y="12">The</text><text fill="rgb(0, 0, 0)" stroke="none" font-family="Arial" font-size="12px" font-style="normal" font-weight="normal" text-decoration="" line-height="14px" x="40.671875" y="12">instructor</text><text fill="rgb(0, 0, 0)" stroke="none" font-family="Arial" font-size="12px" font-style="normal" font-weight="normal" text-decoration="" line-height="14px" x="90.03125" y="12">'</text><text fill="rgb(0, 0, 0)" stroke="none" font-family="Arial" font-size="12px" font-style="normal" font-weight="normal" text-decoration="" line-height="14px" x="92.3125" y="12">s</text><text fill="rgb(0, 0, 0)" stroke="none" font-family="Arial" font-size="12px" font-style="normal" font-weight="normal" text-decoration="" line-height="14px" x="2.46875" y="26">custom</text><text fill="rgb(0, 0, 0)" stroke="none" font-family="Arial" font-size="12px" font-style="normal" font-weight="normal" text-decoration="" line-height="14px" x="44.46875" y="26">grading</text><text fill="rgb(0, 0, 0)" stroke="none" font-family="Arial" font-size="12px" font-style="normal" font-weight="normal" text-decoration="" line-height="14px" x="87.84375" y="26">logic</text><text fill="rgb(0, 0, 0)" stroke="none" font-family="Arial" font-size="12px" font-style="normal" font-weight="normal" text-decoration="" line-height="14px" x="11.140625" y="40">is</text><text fill="rgb(0, 0, 0)" stroke="none" font-family="Arial" font-size="12px" font-style="normal" font-weight="normal" text-decoration="" line-height="14px" x="23.140625" y="40">invoked</text><text fill="rgb(0, 0, 0)" stroke="none" font-family="Arial" font-size="12px" font-style="normal" font-weight="normal" text-decoration="" line-height="14px" x="64.5" y="40">,</text><text fill="rgb(0, 0, 0)" stroke="none" font-family="Arial" font-size="12px" font-style="normal" font-weight="normal" text-decoration="" line-height="14px" x="71.15625" y="40">as</text><text fill="rgb(0, 0, 0)" stroke="none" font-family="Arial" font-size="12px" font-style="normal" font-weight="normal" text-decoration="" line-height="14px" x="87.171875" y="40">the</text><text fill="rgb(0, 0, 0)" stroke="none" font-family="Arial" font-size="12px" font-style="normal" font-weight="normal" text-decoration="" line-height="14px" x="2.125" y="54">AutoGrade</text><text fill="rgb(0, 0, 0)" stroke="none" font-family="Arial" font-size="12px" font-style="normal" font-weight="normal" text-decoration="" line-height="14px" x="63.484375" y="54">container</text><text fill="rgb(0, 0, 0)" stroke="none" font-family="Arial" font-size="12px" font-style="normal" font-weight="normal" text-decoration="" line-height="14px" x="33.484375" y="68">executes</text></g></g><g transform="matrix(1,0,0,1,270,481)"><g><g><rect fill="rgb(0,0,0)" stroke="none" x="0" y="0" width="157" height="70" fill-opacity="0"/></g></g><g><g><rect fill="rgb(0,0,0)" stroke="none" x="0" y="0" width="157" height="70" fill-opacity="0"/></g></g><g><g><rect fill="rgb(0,0,0)" stroke="none" x="8.78125" y="0" width="139" height="70" fill-opacity="0"/></g></g><g><g><rect fill="rgb(0,0,0)" stroke="none" x="8.78125" y="0" width="139" height="70" fill-opacity="0"/></g><text fill="rgb(0, 0, 0)" stroke="none" font-family="Arial" font-size="12px" font-style="normal" font-weight="normal" text-decoration="" line-height="14px" x="25.796875" y="12">Grading</text><text fill="rgb(0, 0, 0)" stroke="none" font-family="Arial" font-size="12px" font-style="normal" font-weight="normal" text-decoration="" line-height="14px" x="71.8125" y="12">information</text><text fill="rgb(0, 0, 0)" stroke="none" font-family="Arial" font-size="12px" font-style="normal" font-weight="normal" text-decoration="" line-height="14px" x="12.8125" y="26"> (</text><text fill="rgb(0, 0, 0)" stroke="none" font-family="Arial" font-size="12px" font-style="normal" font-weight="normal" text-decoration="" line-height="14px" x="131.5" y="26">by</text><text fill="rgb(0, 0, 0)" stroke="none" font-family="Arial" font-size="12px" font-style="normal" font-weight="normal" text-decoration="" line-height="14px" x="8.78125" y="40">AutoTest</text><text fill="rgb(0, 0, 0)" stroke="none" font-family="Arial" font-size="12px" font-style="normal" font-weight="normal" text-decoration="" line-height="14px" x="58.796875" y="40">and</text><text fill="rgb(0, 0, 0)" stroke="none" font-family="Arial" font-size="12px" font-style="normal" font-weight="normal" text-decoration="" line-height="14px" x="82.15625" y="40">stored</text><text fill="rgb(0, 0, 0)" stroke="none" font-family="Arial" font-size="12px" font-style="normal" font-weight="normal" text-decoration="" line-height="14px" x="118.84375" y="40">in</text><text fill="rgb(0, 0, 0)" stroke="none" font-family="Arial" font-size="12px" font-style="normal" font-weight="normal" text-decoration="" line-height="14px" x="131.515625" y="40">the</text><text fill="rgb(0, 0, 0)" stroke="none" font-family="Arial" font-size="12px" font-style="normal" font-weight="normal" text-decoration="" line-height="14px" x="10.78125" y="54">database</text><text fill="rgb(0, 0, 0)" stroke="none" font-family="Arial" font-size="12px" font-style="normal" font-weight="normal" text-decoration="" line-height="14px" x="63.484375" y="54">to</text><text fill="rgb(0, 0, 0)" stroke="none" font-family="Arial" font-size="12px" font-style="normal" font-weight="normal" text-decoration="" line-height="14px" x="76.828125" y="54">be</text><text fill="rgb(0, 0, 0)" stroke="none" font-family="Arial" font-size="12px" font-style="normal" font-weight="normal" text-decoration="" line-height="14px" x="93.515625" y="54">shared</text><text fill="rgb(0, 0, 0)" stroke="none" font-family="Arial" font-size="12px" font-style="normal" font-weight="normal" text-decoration="" line-height="14px" x="133.53125" y="54">by</text><text fill="rgb(0, 0, 0)" stroke="none" font-family="Arial" font-size="12px" font-style="normal" font-weight="normal" text-decoration="" line-height="14px" x="23.796875" y="68">AutoTest</text><text fill="rgb(0, 0, 0)" stroke="none" font-family="Arial" font-size="12px" font-style="normal" font-weight="normal" text-decoration="" line-height="14px" x="73.8125" y="68">and</text><text fill="rgb(0, 0, 0)" stroke="none" font-family="Arial" font-size="12px" font-style="normal" font-weight="normal" text-decoration="" line-height="14px" x="97.171875" y="68">Classy</text></g><g><g><rect fill="rgb(0,0,0)" stroke="none" x="16.8125" y="14" width="62" height="14" fill-opacity="0"/></g><text fill="rgb(0, 0, 0)" stroke="none" font-family="Arial" font-size="12px" font-style="normal" font-weight="700" text-decoration="" line-height="14px" x="16.8125" y="26">report</text><text fill="rgb(0, 0, 0)" stroke="none" font-family="Arial" font-size="12px" font-style="normal" font-weight="700" text-decoration="" line-height="14px" x="51.46875" y="26">.</text><text fill="rgb(0, 0, 0)" stroke="none" font-family="Arial" font-size="12px" font-style="normal" font-weight="700" text-decoration="" line-height="14px" x="54.8125" y="26">json</text></g><g><g><rect fill="rgb(0,0,0)" stroke="none" x="79.484375" y="14" width="49" height="14" fill-opacity="0"/></g><text fill="rgb(0, 0, 0)" stroke="none" font-family="Arial" font-size="12px" font-style="normal" font-weight="normal" text-decoration="" line-height="14px" x="79.484375" y="26">)</text><text fill="rgb(0, 0, 0)" stroke="none" font-family="Arial" font-size="12px" font-style="normal" font-weight="normal" text-decoration="" line-height="14px" x="86.8125" y="26">is</text><text fill="rgb(0, 0, 0)" stroke="none" font-family="Arial" font-size="12px" font-style="normal" font-weight="normal" text-decoration="" line-height="14px" x="98.8125" y="26">taken</text></g></g><g transform="translate(0.5,0.5) matrix(1,0,0,1,283,383.75)"><g><g><g><path fill="none" stroke="none" stroke-dasharray="1.7976931348623157e+308" d="M 10 0 L 120 0 Q 130 0 130 10 L 130 80 Q 130 90 120 90 L 10 90 Q 0 90 0 80 L 0 10 Q 0 0 10 0 Z"/><g transform="scale(1,1)"><path fill="#FFFFFF" stroke="#000000" stroke-dasharray="1.7976931348623157e+308" d="M 10 0 L 120 0 Q 130 0 130 10 L 130 80 Q 130 90 120 90 L 10 90 Q 0 90 0 80 L 0 10 Q 0 0 10 0 Z" stroke-miterlimit="10"/></g></g><g><path fill="none" stroke="none" stroke-dasharray="1.7976931348623157e+308" d="M 10 5 L 120 5 Q 125 5 125 10 L 125 80 Q 125 85 120 85 L 10 85 Q 5 85 5 80 L 5 10 Q 5 5 10 5 Z"/><g transform="scale(1,1)"><path fill="#FFFFFF" stroke="#000000" stroke-dasharray="1.7976931348623157e+308" d="M 10 5 L 120 5 Q 125 5 125 10 L 125 80 Q 125 85 120 85 L 10 85 Q 5 85 5 80 L 5 10 Q 5 5 10 5 Z" stroke-miterlimit="10"/></g></g></g></g></g><g transform="matrix(1,0,0,1,287,422)"><g><g><rect fill="rgb(0,0,0)" stroke="none" x="0" y="0" width="123" height="14" fill-opacity="0"/></g></g><g><g><rect fill="rgb(0,0,0)" stroke="none" x="0" y="0" width="123" height="14" fill-opacity="0"/></g></g><g><g><rect fill="rgb(0,0,0)" stroke="none" x="18.296875" y="0" width="86" height="14" fill-opacity="0"/></g></g><g><g><rect fill="rgb(0,0,0)" stroke="none" x="18.296875" y="0" width="86" height="14" fill-opacity="0"/></g><text fill="rgb(0, 0, 0)" stroke="none" font-family="Arial" font-size="12px" font-style="normal" font-weight="normal" text-decoration="" line-height="14px" x="18.296875" y="12">Classy</text><text fill="rgb(0, 0, 0)" stroke="none" font-family="Arial" font-size="12px" font-style="normal" font-weight="normal" text-decoration="" line-height="14px" x="54.296875" y="12">/</text><text fill="rgb(0, 0, 0)" stroke="none" font-family="Arial" font-size="12px" font-style="normal" font-weight="normal" text-decoration="" line-height="14px" x="57.625" y="12">AutoTest</text></g></g><g transform="matrix(1,0,0,1,296,180)"><g><g><rect fill="rgb(0,0,0)" stroke="none" x="0" y="0" width="105" height="14" fill-opacity="0"/></g></g><g><g><rect fill="rgb(0,0,0)" stroke="none" x="0" y="0" width="105" height="14" fill-opacity="0"/></g></g><g><g><rect fill="rgb(0,0,0)" stroke="none" x="5.796875" y="0" width="93" height="14" fill-opacity="0"/></g></g><g><g><rect fill="rgb(0,0,0)" stroke="none" x="5.796875" y="0" width="93" height="14" fill-opacity="0"/></g><text fill="rgb(0, 0, 0)" stroke="none" font-family="Arial" font-size="12px" font-style="normal" font-weight="normal" text-decoration="" line-height="14px" x="5.796875" y="12">Mounted</text><text fill="rgb(0, 0, 0)" stroke="none" font-family="Arial" font-size="12px" font-style="normal" font-weight="normal" text-decoration="" line-height="14px" x="55.828125" y="12">in</text></g><g><g><rect fill="rgb(0,0,0)" stroke="none" x="68.515625" y="0" width="30" height="14" fill-opacity="0"/></g><text fill="rgb(0, 0, 0)" stroke="none" font-family="Arial" font-size="12px" font-style="normal" font-weight="700" text-decoration="" line-height="14px" x="68.515625" y="12">/</text><text fill="rgb(0, 0, 0)" stroke="none" font-family="Arial" font-size="12px" font-style="normal" font-weight="700" text-decoration="" line-height="14px" x="71.84375" y="12">assn</text></g></g><g transform="matrix(1,0,0,1,561,481)"><g><g><rect fill="rgb(0,0,0)" stroke="none" x="0" y="0" width="161" height="28" fill-opacity="0"/></g></g><g><g><rect fill="rgb(0,0,0)" stroke="none" x="0" y="0" width="161" height="28" fill-opacity="0"/></g></g><g><g><rect fill="rgb(0,0,0)" stroke="none" x="12.828125" y="0" width="135" height="28" fill-opacity="0"/></g><text fill="rgb(0, 0, 0)" stroke="none" font-family="Arial" font-size="12px" font-style="normal" font-weight="normal" text-decoration="" line-height="14px" x="55.8125" y="12">Output</text><text fill="rgb(0, 0, 0)" stroke="none" font-family="Arial" font-size="12px" font-style="normal" font-weight="normal" text-decoration="" line-height="14px" x="95.15625" y="12">to</text></g><g><g><rect fill="rgb(0,0,0)" stroke="none" x="12.828125" y="14" width="135" height="14" fill-opacity="0"/></g><text fill="rgb(0, 0, 0)" stroke="none" font-family="Arial" font-size="12px" font-style="normal" font-weight="700" text-decoration="" line-height="14px" x="12.828125" y="26">/</text><text fill="rgb(0, 0, 0)" stroke="none" font-family="Arial" font-size="12px" font-style="normal" font-weight="700" text-decoration="" line-height="14px" x="16.15625" y="26">output</text><text fill="rgb(0, 0, 0)" stroke="none" font-family="Arial" font-size="12px" font-style="normal" font-weight="700" text-decoration="" line-height="14px" x="53.46875" y="26">/</text><text fill="rgb(0, 0, 0)" stroke="none" font-family="Arial" font-size="12px" font-style="normal" font-weight="700" text-decoration="" line-height="14px" x="56.796875" y="26">staff</text><text fill="rgb(0, 0, 0)" stroke="none" font-family="Arial" font-size="12px" font-style="normal" font-weight="700" text-decoration="" line-height="14px" x="82.140625" y="26">/</text><text fill="rgb(0, 0, 0)" stroke="none" font-family="Arial" font-size="12px" font-style="normal" font-weight="700" text-decoration="" line-height="14px" x="85.46875" y="26">report</text><text fill="rgb(0, 0, 0)" stroke="none" font-family="Arial" font-size="12px" font-style="normal" font-weight="700" text-decoration="" line-height="14px" x="120.140625" y="26">.</text><text fill="rgb(0, 0, 0)" stroke="none" font-family="Arial" font-size="12px" font-style="normal" font-weight="700" text-decoration="" line-height="14px" x="123.46875" y="26">json</text></g><g><g/></g><g><g/></g></g><g transform="translate(0,0) matrix(-1,1.2246467991473532e-16,-1.2246467991473532e-16,-1,550,450)"><g><g transform="translate(0,0) scale(1,0.5)"><g><g transform="scale(1,2)"><path fill="#FFFFFF" stroke="none" stroke-dasharray="1.7976931348623157e+308" d="M 0 15 L 75 15 L 75 0 L 100 25 L 75 50 L 75 35 L 0 35 L 0 15 Z"/><path fill="none" stroke="#333333" stroke-dasharray="1.7976931348623157e+308" d="M 0 15 L 75 15 L 75 0 L 100 25 L 75 50 L 75 35 L 0 35 L 0 15 Z" stroke-miterlimit="10" stroke-width="2"/></g></g></g></g></g><g transform="translate(0.5,0.5) matrix(1,0,0,1,10,383.75)"><g><g><g><path fill="none" stroke="none" stroke-dasharray="1.7976931348623157e+308" d="M 10 0 L 120 0 Q 130 0 130 10 L 130 80 Q 130 90 120 90 L 10 90 Q 0 90 0 80 L 0 10 Q 0 0 10 0 Z"/><g transform="scale(1,1)"><path fill="#FFFFFF" stroke="#000000" stroke-dasharray="1.7976931348623157e+308" d="M 10 0 L 120 0 Q 130 0 130 10 L 130 80 Q 130 90 120 90 L 10 90 Q 0 90 0 80 L 0 10 Q 0 0 10 0 Z" stroke-miterlimit="10"/></g></g><g><path fill="none" stroke="none" stroke-dasharray="1.7976931348623157e+308" d="M 10 5 L 120 5 Q 125 5 125 10 L 125 80 Q 125 85 120 85 L 10 85 Q 5 85 5 80 L 5 10 Q 5 5 10 5 Z"/><g transform="scale(1,1)"><path fill="#FFFFFF" stroke="#000000" stroke-dasharray="1.7976931348623157e+308" d="M 10 5 L 120 5 Q 125 5 125 10 L 125 80 Q 125 85 120 85 L 10 85 Q 5 85 5 80 L 5 10 Q 5 5 10 5 Z" stroke-miterlimit="10"/></g></g></g></g></g><g transform="matrix(1,0,0,1,14,422)"><g><g><rect fill="rgb(0,0,0)" stroke="none" x="0" y="0" width="123" height="14" fill-opacity="0"/></g></g><g><g><rect fill="rgb(0,0,0)" stroke="none" x="0" y="0" width="123" height="14" fill-opacity="0"/></g></g><g><g><rect fill="rgb(0,0,0)" stroke="none" x="35.96875" y="0" width="51" height="14" fill-opacity="0"/></g></g><g><g><rect fill="rgb(0,0,0)" stroke="none" x="35.96875" y="0" width="51" height="14" fill-opacity="0"/></g><text fill="rgb(0, 0, 0)" stroke="none" font-family="Arial" font-size="12px" font-style="normal" font-weight="normal" text-decoration="" line-height="14px" x="35.96875" y="12">Github</text><text fill="rgb(0, 0, 0)" stroke="none" font-family="Arial" font-size="12px" font-style="normal" font-weight="normal" text-decoration="" line-height="14px" x="74.65625" y="12">UI</text></g></g><g transform="translate(0,0) matrix(-1,1.2246467991473532e-16,-1.2246467991473532e-16,-1,260,450)"><g><g transform="translate(0,0) scale(1,0.5)"><g><g transform="scale(1,2)"><path fill="#FFFFFF" stroke="none" stroke-dasharray="1.7976931348623157e+308" d="M 0 15 L 75 15 L 75 0 L 100 25 L 75 50 L 75 35 L 0 35 L 0 15 Z"/><path fill="none" stroke="#333333" stroke-dasharray="1.7976931348623157e+308" d="M 0 15 L 75 15 L 75 0 L 100 25 L 75 50 L 75 35 L 0 35 L 0 15 Z" stroke-miterlimit="10" stroke-width="2"/></g></g></g></g></g><g transform="matrix(1,0,0,1,2,488)"><g><g><rect fill="rgb(0,0,0)" stroke="none" x="0" y="0" width="157" height="42" fill-opacity="0"/></g></g><g><g><rect fill="rgb(0,0,0)" stroke="none" x="0" y="0" width="157" height="42" fill-opacity="0"/></g></g><g><g><rect fill="rgb(0,0,0)" stroke="none" x="7.125" y="0" width="143" height="42" fill-opacity="0"/></g><text fill="rgb(0, 0, 0)" stroke="none" font-family="Arial" font-size="12px" font-style="normal" font-weight="normal" text-decoration="" line-height="14px" x="7.125" y="12">Feedback</text><text fill="rgb(0, 0, 0)" stroke="none" font-family="Arial" font-size="12px" font-style="normal" font-weight="normal" text-decoration="" line-height="14px" x="63.15625" y="12">is</text><text fill="rgb(0, 0, 0)" stroke="none" font-family="Arial" font-size="12px" font-style="normal" font-weight="normal" text-decoration="" line-height="14px" x="75.15625" y="12">sent</text><text fill="rgb(0, 0, 0)" stroke="none" font-family="Arial" font-size="12px" font-style="normal" font-weight="normal" text-decoration="" line-height="14px" x="101.171875" y="12">to</text><text fill="rgb(0, 0, 0)" stroke="none" font-family="Arial" font-size="12px" font-style="normal" font-weight="normal" text-decoration="" line-height="14px" x="114.515625" y="12">Github</text><text fill="rgb(0, 0, 0)" stroke="none" font-family="Arial" font-size="12px" font-style="normal" font-weight="normal" text-decoration="" line-height="14px" x="10.796875" y="26">UI</text><text fill="rgb(0, 0, 0)" stroke="none" font-family="Arial" font-size="12px" font-style="normal" font-weight="normal" text-decoration="" line-height="14px" x="26.125" y="26">if</text><text fill="rgb(0, 0, 0)" stroke="none" font-family="Arial" font-size="12px" font-style="normal" font-weight="normal" text-decoration="" line-height="14px" x="35.453125" y="26">it</text><text fill="rgb(0, 0, 0)" stroke="none" font-family="Arial" font-size="12px" font-style="normal" font-weight="normal" text-decoration="" line-height="14px" x="44.796875" y="26">is</text><text fill="rgb(0, 0, 0)" stroke="none" font-family="Arial" font-size="12px" font-style="normal" font-weight="normal" text-decoration="" line-height="14px" x="56.796875" y="26">requested</text><text fill="rgb(0, 0, 0)" stroke="none" font-family="Arial" font-size="12px" font-style="normal" font-weight="normal" text-decoration="" line-height="14px" x="113.5" y="26">by</text><text fill="rgb(0, 0, 0)" stroke="none" font-family="Arial" font-size="12px" font-style="normal" font-weight="normal" text-decoration="" line-height="14px" x="129.5" y="26">the</text><text fill="rgb(0, 0, 0)" stroke="none" font-family="Arial" font-size="12px" font-style="normal" font-weight="normal" text-decoration="" line-height="14px" x="58.8125" y="40">student</text></g><g><g/></g><g><g/></g></g></g></svg>