<svg version="1.1" xmlns="http://www.w3.org/2000/svg" xmlns:xlink="http://www.w3.org/1999/xlink" width="1178" height="836.5"><style xmlns="http://www.w3.org/1999/xhtml"></style><defs/><g transform="translate(0,0)"><g><rect fill="#FFFFFF" stroke="none" x="0" y="0" width="1178" height="836.5"/></g><g transform="translate(0,0) matrix(1,0,0,1,90,50)"><g><g transform="translate(0,0) scale(7.4,3.3)"><g><path fill="#FFFFFF" stroke="none" stroke-dasharray="8,8" d="M 0 0 L 100 0 Q 100 0 100 0 L 100 100 Q 100 100 100 100 L 0 100 Q 0 100 0 100 L 0 0 Q 0 0 0 0 Z"/><g transform="scale(0.13513513513513511,0.30303030303030304)"><path fill="none" stroke="none" stroke-dasharray="8,8" d="M 0 0 L 740 0 Q 740 0 740 0 L 740 330 Q 740 330 740 330 L 0 330 Q 0 330 0 330 L 0 0 Q 0 0 0 0 Z"/><path fill="none" stroke="#333333" stroke-dasharray="8,8" d="M 0 0 L 740 0 Q 740 0 740 0 L 740 330 Q 740 330 740 330 L 0 330 Q 0 330 0 330 L 0 0 Q 0 0 0 0 Z" stroke-miterlimit="10" stroke-width="2"/></g></g></g></g></g><g transform="matrix(1,0,0,1,100,204)"><g><g><rect fill="rgb(0,0,0)" stroke="none" x="0" y="0" width="721" height="22" fill-opacity="0"/></g></g><g><g><rect fill="rgb(0,0,0)" stroke="none" x="0" y="0" width="721" height="22" fill-opacity="0"/></g></g><g><g><rect fill="rgb(0,0,0)" stroke="none" x="191.296875" y="0" width="339" height="22" fill-opacity="0"/></g></g><g><g><rect fill="rgb(0,0,0)" stroke="none" x="191.296875" y="0" width="339" height="22" fill-opacity="0"/></g><text fill="rgb(0, 0, 0)" stroke="none" font-family="Verdana" font-size="18px" font-style="normal" font-weight="700" text-decoration="" line-height="22px" x="191.296875" y="19">Root</text><text fill="rgb(0, 0, 0)" stroke="none" font-family="Verdana" font-size="18px" font-style="normal" font-weight="700" text-decoration="" line-height="22px" x="244.4375" y="19">UBCCPSC</text><text fill="rgb(0, 0, 0)" stroke="none" font-family="Verdana" font-size="18px" font-style="normal" font-weight="700" text-decoration="" line-height="22px" x="337.828125" y="19">/</text><text fill="rgb(0, 0, 0)" stroke="none" font-family="Verdana" font-size="18px" font-style="normal" font-weight="700" text-decoration="" line-height="22px" x="350.234375" y="19">Classy</text><text fill="rgb(0, 0, 0)" stroke="none" font-family="Verdana" font-size="18px" font-style="normal" font-weight="700" text-decoration="" line-height="22px" x="420.65625" y="19">Repository</text></g></g><g transform="translate(0,0) matrix(1,0,0,1,140,110)"><g><g transform="translate(0,0) scale(5,0.7)"><g><path fill="#FFFFFF" stroke="none" stroke-dasharray="1.7976931348623157e+308" d="M 0 0 L 100 0 Q 100 0 100 0 L 100 100 Q 100 100 100 100 L 0 100 Q 0 100 0 100 L 0 0 Q 0 0 0 0 Z"/><g transform="scale(0.2,1.4285714285714286)"><path fill="none" stroke="none" stroke-dasharray="1.7976931348623157e+308" d="M 0 0 L 500 0 Q 500 0 500 0 L 500 70 Q 500 70 500 70 L 0 70 Q 0 70 0 70 L 0 0 Q 0 0 0 0 Z"/><path fill="none" stroke="#333333" stroke-dasharray="1.7976931348623157e+308" d="M 0 0 L 500 0 Q 500 0 500 0 L 500 70 Q 500 70 500 70 L 0 70 Q 0 70 0 70 L 0 0 Q 0 0 0 0 Z" stroke-miterlimit="10" stroke-width="2"/></g></g></g></g></g><g transform="matrix(1,0,0,1,150,136)"><g><g><rect fill="rgb(0,0,0)" stroke="none" x="0" y="0" width="481" height="19" fill-opacity="0"/></g></g><g><g><rect fill="rgb(0,0,0)" stroke="none" x="0" y="0" width="481" height="19" fill-opacity="0"/></g></g><g><g><rect fill="rgb(0,0,0)" stroke="none" x="175.640625" y="0" width="129" height="19" fill-opacity="0"/></g></g><g><g><rect fill="rgb(0,0,0)" stroke="none" x="175.640625" y="0" width="129" height="19" fill-opacity="0"/></g><text fill="rgb(0, 0, 0)" stroke="none" font-family="Verdana" font-size="16px" font-style="normal" font-weight="700" text-decoration="" line-height="19.75px" x="175.640625" y="17">Master</text><text fill="rgb(0, 0, 0)" stroke="none" font-family="Verdana" font-size="16px" font-style="normal" font-weight="700" text-decoration="" line-height="19.75px" x="242.3125" y="17">Branch</text></g></g><g transform="translate(0,0) matrix(1,0,0,1,90,416)"><g><g transform="translate(0,0) scale(7.4,3.3)"><g><path fill="#FFFFFF" stroke="none" stroke-dasharray="8,8" d="M 0 0 L 100 0 Q 100 0 100 0 L 100 100 Q 100 100 100 100 L 0 100 Q 0 100 0 100 L 0 0 Q 0 0 0 0 Z"/><g transform="scale(0.13513513513513511,0.30303030303030304)"><path fill="none" stroke="none" stroke-dasharray="8,8" d="M 0 0 L 740 0 Q 740 0 740 0 L 740 330 Q 740 330 740 330 L 0 330 Q 0 330 0 330 L 0 0 Q 0 0 0 0 Z"/><path fill="none" stroke="#333333" stroke-dasharray="8,8" d="M 0 0 L 740 0 Q 740 0 740 0 L 740 330 Q 740 330 740 330 L 0 330 Q 0 330 0 330 L 0 0 Q 0 0 0 0 Z" stroke-miterlimit="10" stroke-width="2"/></g></g></g></g></g><g transform="matrix(1,0,0,1,100,548)"><g><g><rect fill="rgb(0,0,0)" stroke="none" x="0" y="0" width="721" height="66" fill-opacity="0"/></g></g><g><g><rect fill="rgb(0,0,0)" stroke="none" x="0" y="0" width="721" height="66" fill-opacity="0"/></g></g><g><g><rect fill="rgb(0,0,0)" stroke="none" x="111.8125" y="22" width="497" height="66" fill-opacity="0"/></g></g><g><g><rect fill="rgb(0,0,0)" stroke="none" x="111.8125" y="22" width="497" height="66" fill-opacity="0"/></g><text fill="rgb(0, 0, 0)" stroke="none" font-family="Verdana" font-size="18px" font-style="normal" font-weight="700" text-decoration="" line-height="22px" x="111.8125" y="41">Downstream</text><text fill="rgb(0, 0, 0)" stroke="none" font-family="Verdana" font-size="18px" font-style="normal" font-weight="700" text-decoration="" line-height="22px" x="246.5625" y="41">Fork</text><text fill="rgb(0, 0, 0)" stroke="none" font-family="Verdana" font-size="18px" font-style="normal" font-weight="700" text-decoration="" line-height="22px" x="297.796875" y="41">of</text><text fill="rgb(0, 0, 0)" stroke="none" font-family="Verdana" font-size="18px" font-style="normal" font-weight="700" text-decoration="" line-height="22px" x="323.90625" y="41">UBCCPSC</text><text fill="rgb(0, 0, 0)" stroke="none" font-family="Verdana" font-size="18px" font-style="normal" font-weight="700" text-decoration="" line-height="22px" x="417.296875" y="41">/</text><text fill="rgb(0, 0, 0)" stroke="none" font-family="Verdana" font-size="18px" font-style="normal" font-weight="700" text-decoration="" line-height="22px" x="429.703125" y="41">Classy</text><text fill="rgb(0, 0, 0)" stroke="none" font-family="Verdana" font-size="18px" font-style="normal" font-weight="700" text-decoration="" line-height="22px" x="500.125" y="41">Repository</text><text fill="rgb(0, 0, 0)" stroke="none" font-family="Verdana" font-size="18px" font-style="normal" font-weight="700" text-decoration="" line-height="22px" x="211.359375" y="63">ie</text><text fill="rgb(0, 0, 0)" stroke="none" font-family="Verdana" font-size="18px" font-style="normal" font-weight="700" text-decoration="" line-height="22px" x="229.453125" y="63">.</text><text fill="rgb(0, 0, 0)" stroke="none" font-family="Verdana" font-size="18px" font-style="normal" font-weight="700" text-decoration="" line-height="22px" x="242.109375" y="63">`</text><text fill="rgb(0, 0, 0)" stroke="none" font-family="Verdana" font-size="18px" font-style="normal" font-weight="700" text-decoration="" line-height="22px" x="254.90625" y="63">UBCCPSC310</text><text fill="rgb(0, 0, 0)" stroke="none" font-family="Verdana" font-size="18px" font-style="normal" font-weight="700" text-decoration="" line-height="22px" x="386.6875" y="63">/</text><text fill="rgb(0, 0, 0)" stroke="none" font-family="Verdana" font-size="18px" font-style="normal" font-weight="700" text-decoration="" line-height="22px" x="399.09375" y="63">Classy</text><text fill="rgb(0, 0, 0)" stroke="none" font-family="Verdana" font-size="18px" font-style="normal" font-weight="700" text-decoration="" line-height="22px" x="463.375" y="63">.</text><text fill="rgb(0, 0, 0)" stroke="none" font-family="Verdana" font-size="18px" font-style="normal" font-weight="700" text-decoration="" line-height="22px" x="469.875" y="63">git</text><text fill="rgb(0, 0, 0)" stroke="none" font-family="Verdana" font-size="18px" font-style="normal" font-weight="700" text-decoration="" line-height="22px" x="496.8125" y="63">`</text></g><g><g/></g><g><g/></g></g><g transform="translate(0,0) matrix(1,0,0,1,140,480)"><g><g transform="translate(0,0) scale(5,0.7)"><g><path fill="#FFFFFF" stroke="none" stroke-dasharray="1.7976931348623157e+308" d="M 0 0 L 100 0 Q 100 0 100 0 L 100 100 Q 100 100 100 100 L 0 100 Q 0 100 0 100 L 0 0 Q 0 0 0 0 Z"/><g transform="scale(0.2,1.4285714285714286)"><path fill="none" stroke="none" stroke-dasharray="1.7976931348623157e+308" d="M 0 0 L 500 0 Q 500 0 500 0 L 500 70 Q 500 70 500 70 L 0 70 Q 0 70 0 70 L 0 0 Q 0 0 0 0 Z"/><path fill="none" stroke="#333333" stroke-dasharray="1.7976931348623157e+308" d="M 0 0 L 500 0 Q 500 0 500 0 L 500 70 Q 500 70 500 70 L 0 70 Q 0 70 0 70 L 0 0 Q 0 0 0 0 Z" stroke-miterlimit="10" stroke-width="2"/></g></g></g></g></g><g transform="matrix(1,0,0,1,150,506)"><g><g><rect fill="rgb(0,0,0)" stroke="none" x="0" y="0" width="481" height="19" fill-opacity="0"/></g></g><g><g><rect fill="rgb(0,0,0)" stroke="none" x="0" y="0" width="481" height="19" fill-opacity="0"/></g></g><g><g><rect fill="rgb(0,0,0)" stroke="none" x="175.640625" y="0" width="129" height="19" fill-opacity="0"/></g></g><g><g><rect fill="rgb(0,0,0)" stroke="none" x="175.640625" y="0" width="129" height="19" fill-opacity="0"/></g><text fill="rgb(0, 0, 0)" stroke="none" font-family="Verdana" font-size="16px" font-style="normal" font-weight="700" text-decoration="" line-height="19.75px" x="175.640625" y="17">Master</text><text fill="rgb(0, 0, 0)" stroke="none" font-family="Verdana" font-size="16px" font-style="normal" font-weight="700" text-decoration="" line-height="19.75px" x="242.3125" y="17">Branch</text></g></g><g transform="translate(0,0) matrix(1,0,0,1,140,650)"><g><g transform="translate(0,0) scale(5,0.5)"><g><path fill="#FFFFFF" stroke="none" stroke-dasharray="1.7976931348623157e+308" d="M 0 0 L 100 0 Q 100 0 100 0 L 100 100 Q 100 100 100 100 L 0 100 Q 0 100 0 100 L 0 0 Q 0 0 0 0 Z"/><g transform="scale(0.2,2)"><path fill="none" stroke="none" stroke-dasharray="1.7976931348623157e+308" d="M 0 0 L 500 0 Q 500 0 500 0 L 500 50 Q 500 50 500 50 L 0 50 Q 0 50 0 50 L 0 0 Q 0 0 0 0 Z"/><path fill="none" stroke="#333333" stroke-dasharray="1.7976931348623157e+308" d="M 0 0 L 500 0 Q 500 0 500 0 L 500 50 Q 500 50 500 50 L 0 50 Q 0 50 0 50 L 0 0 Q 0 0 0 0 Z" stroke-miterlimit="10" stroke-width="2"/></g></g></g></g></g><g transform="matrix(1,0,0,1,150,666)"><g><g><rect fill="rgb(0,0,0)" stroke="none" x="0" y="0" width="481" height="19" fill-opacity="0"/></g></g><g><g><rect fill="rgb(0,0,0)" stroke="none" x="0" y="0" width="481" height="19" fill-opacity="0"/></g></g><g><g><rect fill="rgb(0,0,0)" stroke="none" x="17.671875" y="0" width="445" height="19" fill-opacity="0"/></g><text fill="rgb(0, 0, 0)" stroke="none" font-family="Verdana" font-size="16px" font-style="normal" font-weight="700" text-decoration="" line-height="19.75px" x="17.671875" y="17">Feature</text><text fill="rgb(0, 0, 0)" stroke="none" font-family="Verdana" font-size="16px" font-style="normal" font-weight="700" text-decoration="" line-height="19.75px" x="92.125" y="17">Branch</text><text fill="rgb(0, 0, 0)" stroke="none" font-family="Verdana" font-size="16px" font-style="normal" font-weight="700" text-decoration="" line-height="19.75px" x="160.625" y="17">ie</text><text fill="rgb(0, 0, 0)" stroke="none" font-family="Verdana" font-size="16px" font-style="normal" font-weight="700" text-decoration="" line-height="19.75px" x="176.71875" y="17">.</text><text fill="rgb(0, 0, 0)" stroke="none" font-family="Verdana" font-size="16px" font-style="normal" font-weight="700" text-decoration="" line-height="19.75px" x="187.96875" y="17">'</text><text fill="rgb(0, 0, 0)" stroke="none" font-family="Verdana" font-size="16px" font-style="normal" font-weight="700" text-decoration="" line-height="19.75px" x="193.28125" y="17">feature</text><text fill="rgb(0, 0, 0)" stroke="none" font-family="Verdana" font-size="16px" font-style="normal" font-weight="700" text-decoration="" line-height="19.75px" x="258.625" y="17">/</text><text fill="rgb(0, 0, 0)" stroke="none" font-family="Verdana" font-size="16px" font-style="normal" font-weight="700" text-decoration="" line-height="19.75px" x="269.65625" y="17">team</text><text fill="rgb(0, 0, 0)" stroke="none" font-family="Verdana" font-size="16px" font-style="normal" font-weight="700" text-decoration="" line-height="19.75px" x="315.1875" y="17">-</text><text fill="rgb(0, 0, 0)" stroke="none" font-family="Verdana" font-size="16px" font-style="normal" font-weight="700" text-decoration="" line-height="19.75px" x="322.859375" y="17">name</text><text fill="rgb(0, 0, 0)" stroke="none" font-family="Verdana" font-size="16px" font-style="normal" font-weight="700" text-decoration="" line-height="19.75px" x="372.5" y="17">-</text><text fill="rgb(0, 0, 0)" stroke="none" font-family="Verdana" font-size="16px" font-style="normal" font-weight="700" text-decoration="" line-height="19.75px" x="380.1875" y="17">compute</text><text fill="rgb(0, 0, 0)" stroke="none" font-family="Verdana" font-size="16px" font-style="normal" font-weight="700" text-decoration="" line-height="19.75px" x="458.015625" y="17">'</text></g></g><g transform="matrix(1,0,0,1,842,334)"><g><g><rect fill="rgb(0,0,0)" stroke="none" x="0" y="0" width="317" height="148" fill-opacity="0"/></g></g><g><g><rect fill="rgb(0,0,0)" stroke="none" x="0" y="0" width="317" height="96" fill-opacity="0"/></g></g><g><g><rect fill="rgb(0,0,0)" stroke="none" x="0.1875" y="0" width="317" height="96" fill-opacity="0"/></g></g><g><g><rect fill="rgb(0,0,0)" stroke="none" x="0.1875" y="0" width="317" height="96" fill-opacity="0"/></g><text fill="rgb(74, 134, 232)" stroke="none" font-family="Verdana" font-size="20px" font-style="normal" font-weight="normal" text-decoration="" line-height="24.25px" x="28.671875" y="20">Pull</text><text fill="rgb(74, 134, 232)" stroke="none" font-family="Verdana" font-size="20px" font-style="normal" font-weight="normal" text-decoration="" line-height="24.25px" x="64.359375" y="20">-</text><text fill="rgb(74, 134, 232)" stroke="none" font-family="Verdana" font-size="20px" font-style="normal" font-weight="normal" text-decoration="" line-height="24.25px" x="73.4375" y="20">request</text><text fill="rgb(74, 134, 232)" stroke="none" font-family="Verdana" font-size="20px" font-style="normal" font-weight="normal" text-decoration="" line-height="24.25px" x="156.25" y="20">into</text><text fill="rgb(74, 134, 232)" stroke="none" font-family="Verdana" font-size="20px" font-style="normal" font-weight="normal" text-decoration="" line-height="24.25px" x="201.453125" y="20">root</text><text fill="rgb(74, 134, 232)" stroke="none" font-family="Verdana" font-size="20px" font-style="normal" font-weight="normal" text-decoration="" line-height="24.25px" x="249.171875" y="20">Master</text><text fill="rgb(74, 134, 232)" stroke="none" font-family="Verdana" font-size="20px" font-style="normal" font-weight="normal" text-decoration="" line-height="24.25px" x="57.4375" y="68">(</text><text fill="rgb(74, 134, 232)" stroke="none" font-family="Verdana" font-size="20px" font-style="normal" font-weight="normal" text-decoration="" line-height="24.25px" x="66.515625" y="68">Must</text><text fill="rgb(74, 134, 232)" stroke="none" font-family="Verdana" font-size="20px" font-style="normal" font-weight="normal" text-decoration="" line-height="24.25px" x="121.359375" y="68">be</text><text fill="rgb(74, 134, 232)" stroke="none" font-family="Verdana" font-size="20px" font-style="normal" font-weight="normal" text-decoration="" line-height="24.25px" x="152.765625" y="68">rebased</text><text fill="rgb(74, 134, 232)" stroke="none" font-family="Verdana" font-size="20px" font-style="normal" font-weight="normal" text-decoration="" line-height="24.25px" x="239.515625" y="68">to</text><text fill="rgb(74, 134, 232)" stroke="none" font-family="Verdana" font-size="20px" font-style="normal" font-weight="normal" text-decoration="" line-height="24.25px" x="66.3125" y="92">UBCCPSC</text><text fill="rgb(74, 134, 232)" stroke="none" font-family="Verdana" font-size="20px" font-style="normal" font-weight="normal" text-decoration="" line-height="24.25px" x="162.28125" y="92">/</text><text fill="rgb(74, 134, 232)" stroke="none" font-family="Verdana" font-size="20px" font-style="normal" font-weight="normal" text-decoration="" line-height="24.25px" x="171.359375" y="92">master</text><text fill="rgb(74, 134, 232)" stroke="none" font-family="Verdana" font-size="20px" font-style="normal" font-weight="normal" text-decoration="" line-height="24.25px" x="241.578125" y="92">)</text></g><g><g><rect fill="rgb(0,0,0)" stroke="none" x="0.1875" y="0" width="22" height="24" fill-opacity="0"/></g><text fill="rgb(74, 134, 232)" stroke="none" font-family="Verdana" font-size="20px" font-style="normal" font-weight="700" text-decoration="" line-height="24.25px" x="0.1875" y="20">2</text><text fill="rgb(74, 134, 232)" stroke="none" font-family="Verdana" font-size="20px" font-style="normal" font-weight="700" text-decoration="" line-height="24.25px" x="14.40625" y="20">.</text></g><g><g/></g><g><g/></g></g><g transform="matrix(1,0,0,1,87,344)"><g><g><rect fill="rgb(0,0,0)" stroke="none" x="0" y="0" width="443" height="48" fill-opacity="0"/></g></g><g><g><rect fill="rgb(0,0,0)" stroke="none" x="0" y="0" width="443" height="24" fill-opacity="0"/></g></g><g><g><rect fill="rgb(0,0,0)" stroke="none" x="13.171875" y="0" width="417" height="24" fill-opacity="0"/></g></g><g><g><rect fill="rgb(0,0,0)" stroke="none" x="13.171875" y="0" width="417" height="24" fill-opacity="0"/></g><text fill="rgb(74, 134, 232)" stroke="none" font-family="Verdana" font-size="20px" font-style="normal" font-weight="normal" text-decoration="" line-height="24.25px" x="41.65625" y="20">Merge</text><text fill="rgb(74, 134, 232)" stroke="none" font-family="Verdana" font-size="20px" font-style="normal" font-weight="normal" text-decoration="" line-height="24.25px" x="110.359375" y="20">into</text><text fill="rgb(74, 134, 232)" stroke="none" font-family="Verdana" font-size="20px" font-style="normal" font-weight="normal" text-decoration="" line-height="24.25px" x="155.5625" y="20">downstream</text><text fill="rgb(74, 134, 232)" stroke="none" font-family="Verdana" font-size="20px" font-style="normal" font-weight="normal" text-decoration="" line-height="24.25px" x="286.421875" y="20">Master</text><text fill="rgb(74, 134, 232)" stroke="none" font-family="Verdana" font-size="20px" font-style="normal" font-weight="normal" text-decoration="" line-height="24.25px" x="361.078125" y="20">branch</text></g><g><g><rect fill="rgb(0,0,0)" stroke="none" x="13.171875" y="0" width="22" height="24" fill-opacity="0"/></g><text fill="rgb(74, 134, 232)" stroke="none" font-family="Verdana" font-size="20px" font-style="normal" font-weight="700" text-decoration="" line-height="24.25px" x="13.171875" y="20">3</text><text fill="rgb(74, 134, 232)" stroke="none" font-family="Verdana" font-size="20px" font-style="normal" font-weight="700" text-decoration="" line-height="24.25px" x="27.390625" y="20">.</text></g></g><g transform="translate(0.5,0.5) matrix(6.123233995736766e-17,1,-1,6.123233995736766e-17,238.7285,538.7284999999999)"><g><g transform="translate(0,0) scale(0.9999916667361105,1)"><g><g><path fill="#4a86e8" stroke="rgb(0,0,0)" stroke-dasharray="1.7976931348623157e+308" d="M 91.772 83.011 C 59.114 80.697 32.467 50.73 14.25 25.349 C 8.368 17.153 0 0 0 0 C 0 0 6.694 8.22 10.214 12.035 C 28.401 34.356 59.374 55.64 91.73 55.558 L 91.726 41.095 L 120.001 69.057 L 91.794 97.457 L 91.772 83.011 Z" stroke-opacity="0" stroke-miterlimit="10"/></g></g></g></g></g><g transform="translate(0.5,0.5) matrix(-1.8369701987210297e-16,-1,1,-1.8369701987210297e-16,623.1312271052875,693.1312271052875)"><g><g transform="translate(0,0) scale(2.0521700170046504,2.052187118421458)"><g><g><path fill="#4a86e8" stroke="rgb(0,0,0)" stroke-dasharray="1.7976931348623157e+308" d="M 91.772 83.011 C 59.114 80.697 32.467 50.73 14.25 25.349 C 8.368 17.153 0 0 0 0 C 0 0 6.694 8.22 10.214 12.035 C 28.401 34.356 59.374 55.64 91.73 55.558 L 91.726 41.095 L 120.001 69.057 L 91.794 97.457 L 91.772 83.011 Z" stroke-opacity="0" stroke-miterlimit="10"/></g></g></g></g></g><g transform="translate(0.5,0.5) matrix(-0.8660254037844386,-0.5000000000000001,0.5000000000000001,-0.8660254037844386,769.7659977776176,398.16815393108766)"><g><g transform="translate(0,0) scale(2.0521700170046504,2.052187118421458)"><g><g><path fill="#4a86e8" stroke="rgb(0,0,0)" stroke-dasharray="1.7976931348623157e+308" d="M 91.772 83.011 C 59.114 80.697 32.467 50.73 14.25 25.349 C 8.368 17.153 0 0 0 0 C 0 0 6.694 8.22 10.214 12.035 C 28.401 34.356 59.374 55.64 91.73 55.558 L 91.726 41.095 L 120.001 69.057 L 91.794 97.457 L 91.772 83.011 Z" stroke-opacity="0" stroke-miterlimit="10"/></g></g></g></g></g><g transform="matrix(1,0,0,1,72,432)"><g><g><rect fill="rgb(0,0,0)" stroke="none" x="0" y="0" width="487" height="24" fill-opacity="0"/></g></g><g><g><rect fill="rgb(0,0,0)" stroke="none" x="0" y="0" width="487" height="24" fill-opacity="0"/></g></g><g><g><rect fill="rgb(0,0,0)" stroke="none" x="28.734375" y="0" width="429" height="24" fill-opacity="0"/></g></g><g><g><rect fill="rgb(0,0,0)" stroke="none" x="28.734375" y="0" width="429" height="24" fill-opacity="0"/></g><text fill="rgb(74, 134, 232)" stroke="none" font-family="Verdana" font-size="20px" font-style="normal" font-weight="normal" text-decoration="" line-height="24.25px" x="57.21875" y="20">Create</text><text fill="rgb(74, 134, 232)" stroke="none" font-family="Verdana" font-size="20px" font-style="normal" font-weight="normal" text-decoration="" line-height="24.25px" x="130.46875" y="20">feature</text><text fill="rgb(74, 134, 232)" stroke="none" font-family="Verdana" font-size="20px" font-style="normal" font-weight="normal" text-decoration="" line-height="24.25px" x="209.4375" y="20">branch</text><text fill="rgb(74, 134, 232)" stroke="none" font-family="Verdana" font-size="20px" font-style="normal" font-weight="normal" text-decoration="" line-height="24.25px" x="285.203125" y="20">from</text><text fill="rgb(74, 134, 232)" stroke="none" font-family="Verdana" font-size="20px" font-style="normal" font-weight="normal" text-decoration="" line-height="24.25px" x="339.40625" y="20">fork</text><text fill="rgb(74, 134, 232)" stroke="none" font-family="Verdana" font-size="20px" font-style="normal" font-weight="normal" text-decoration="" line-height="24.25px" x="378.9375" y="20">/</text><text fill="rgb(74, 134, 232)" stroke="none" font-family="Verdana" font-size="20px" font-style="normal" font-weight="normal" text-decoration="" line-height="24.25px" x="388.015625" y="20">master</text></g><g><g><rect fill="rgb(0,0,0)" stroke="none" x="28.734375" y="0" width="21" height="24" fill-opacity="0"/></g><text fill="rgb(74, 134, 232)" stroke="none" font-family="Verdana" font-size="20px" font-style="normal" font-weight="700" text-decoration="" line-height="24.25px" x="28.734375" y="20">1</text><text fill="rgb(74, 134, 232)" stroke="none" font-family="Verdana" font-size="20px" font-style="normal" font-weight="700" text-decoration="" line-height="24.25px" x="42.953125" y="20">.</text></g></g><g transform="translate(0.5,0.5) matrix(6.123233995736766e-17,1,-1,6.123233995736766e-17,163.1312271052875,146.86877289471246)"><g><g transform="translate(0,0) scale(2.0521700170046504,2.052187118421458)"><g><g><path fill="#4a86e8" stroke="rgb(0,0,0)" stroke-dasharray="1.7976931348623157e+308" d="M 91.772 83.011 C 59.114 80.697 32.467 50.73 14.25 25.349 C 8.368 17.153 0 0 0 0 C 0 0 6.694 8.22 10.214 12.035 C 28.401 34.356 59.374 55.64 91.73 55.558 L 91.726 41.095 L 120.001 69.057 L 91.794 97.457 L 91.772 83.011 Z" stroke-opacity="0" stroke-miterlimit="10"/></g></g></g></g></g><g transform="translate(0.5,0.5) matrix(0.9659258262890683,0.25881904510252074,-0.25881904510252074,0.9659258262890683,18.046499599126687,402.9232264496406)"><g><g transform="translate(0,0) scale(1.2313020102027903,1.2313122710528748)"><g><g><path fill="#4a86e8" stroke="rgb(0,0,0)" stroke-dasharray="1.7976931348623157e+308" d="M 91.772 83.011 C 59.114 80.697 32.467 50.73 14.25 25.349 C 8.368 17.153 0 0 0 0 C 0 0 6.694 8.22 10.214 12.035 C 28.401 34.356 59.374 55.64 91.73 55.558 L 91.726 41.095 L 120.001 69.057 L 91.794 97.457 L 91.772 83.011 Z" stroke-opacity="0" stroke-miterlimit="10"/></g></g></g></g></g><g transform="matrix(1,0,0,1,88,777)"><g><g><rect fill="rgb(0,0,0)" stroke="none" x="0" y="0" width="751" height="40" fill-opacity="0"/></g></g><g><g><rect fill="rgb(0,0,0)" stroke="none" x="0" y="0" width="751" height="40" fill-opacity="0"/></g></g><g><g><rect fill="rgb(0,0,0)" stroke="none" x="0" y="0" width="740" height="40" fill-opacity="0"/></g></g><g><g><rect fill="rgb(0,0,0)" stroke="none" x="0" y="0" width="740" height="40" fill-opacity="0"/></g><text fill="rgb(0, 0, 0)" stroke="none" font-family="Arial" font-size="18px" font-style="normal" font-weight="normal" text-decoration="" line-height="20.5px" x="0" y="17">*</text><text fill="rgb(0, 0, 0)" stroke="none" font-family="Arial" font-size="18px" font-style="normal" font-weight="normal" text-decoration="" line-height="20.5px" x="7" y="17">It</text><text fill="rgb(0, 0, 0)" stroke="none" font-family="Arial" font-size="18px" font-style="normal" font-weight="normal" text-decoration="" line-height="20.5px" x="22" y="17">is</text><text fill="rgb(0, 0, 0)" stroke="none" font-family="Arial" font-size="18px" font-style="normal" font-weight="normal" text-decoration="" line-height="20.5px" x="40" y="17">recommended</text><text fill="rgb(0, 0, 0)" stroke="none" font-family="Arial" font-size="18px" font-style="normal" font-weight="normal" text-decoration="" line-height="20.5px" x="160.0625" y="17">to</text><text fill="rgb(0, 0, 0)" stroke="none" font-family="Arial" font-size="18px" font-style="normal" font-weight="normal" text-decoration="" line-height="20.5px" x="180.078125" y="17">create</text><text fill="rgb(0, 0, 0)" stroke="none" font-family="Arial" font-size="18px" font-style="normal" font-weight="normal" text-decoration="" line-height="20.5px" x="235.09375" y="17">a</text><text fill="rgb(0, 0, 0)" stroke="none" font-family="Arial" font-size="18px" font-style="normal" font-weight="normal" text-decoration="" line-height="20.5px" x="250.109375" y="17">release</text><text fill="rgb(0, 0, 0)" stroke="none" font-family="Arial" font-size="18px" font-style="normal" font-weight="normal" text-decoration="" line-height="20.5px" x="309.140625" y="17">-</text><text fill="rgb(0, 0, 0)" stroke="none" font-family="Arial" font-size="18px" font-style="normal" font-weight="normal" text-decoration="" line-height="20.5px" x="315.140625" y="17">branch</text><text fill="rgb(0, 0, 0)" stroke="none" font-family="Arial" font-size="18px" font-style="normal" font-weight="normal" text-decoration="" line-height="20.5px" x="370.171875" y="17">,</text><text fill="rgb(0, 0, 0)" stroke="none" font-family="Arial" font-size="18px" font-style="normal" font-weight="normal" text-decoration="" line-height="20.5px" x="380.1875" y="17">on</text><text fill="rgb(0, 0, 0)" stroke="none" font-family="Arial" font-size="18px" font-style="normal" font-weight="normal" text-decoration="" line-height="20.5px" x="405.203125" y="17">your</text><text fill="rgb(0, 0, 0)" stroke="none" font-family="Arial" font-size="18px" font-style="normal" font-weight="normal" text-decoration="" line-height="20.5px" x="445.21875" y="17">organization</text><text fill="rgb(0, 0, 0)" stroke="none" font-family="Arial" font-size="18px" font-style="normal" font-weight="normal" text-decoration="" line-height="20.5px" x="548.296875" y="17">fork</text><text fill="rgb(0, 0, 0)" stroke="none" font-family="Arial" font-size="18px" font-style="normal" font-weight="normal" text-decoration="" line-height="20.5px" x="578.296875" y="17">,</text><text fill="rgb(0, 0, 0)" stroke="none" font-family="Arial" font-size="18px" font-style="normal" font-weight="normal" text-decoration="" line-height="20.5px" x="588.296875" y="17">where</text><text fill="rgb(0, 0, 0)" stroke="none" font-family="Arial" font-size="18px" font-style="normal" font-weight="normal" text-decoration="" line-height="20.5px" x="642.328125" y="17">code</text><text fill="rgb(0, 0, 0)" stroke="none" font-family="Arial" font-size="18px" font-style="normal" font-weight="normal" text-decoration="" line-height="20.5px" x="686.359375" y="17">can</text><text fill="rgb(0, 0, 0)" stroke="none" font-family="Arial" font-size="18px" font-style="normal" font-weight="normal" text-decoration="" line-height="20.5px" x="720.375" y="17">be</text><text fill="rgb(0, 0, 0)" stroke="none" font-family="Arial" font-size="18px" font-style="normal" font-weight="normal" text-decoration="" line-height="20.5px" x="0" y="37">tested</text><text fill="rgb(0, 0, 0)" stroke="none" font-family="Arial" font-size="18px" font-style="normal" font-weight="normal" text-decoration="" line-height="20.5px" x="54.03125" y="37">in</text><text fill="rgb(0, 0, 0)" stroke="none" font-family="Arial" font-size="18px" font-style="normal" font-weight="normal" text-decoration="" line-height="20.5px" x="73.03125" y="37">your</text><text fill="rgb(0, 0, 0)" stroke="none" font-family="Arial" font-size="18px" font-style="normal" font-weight="normal" text-decoration="" line-height="20.5px" x="113.0625" y="37">course</text><text fill="rgb(0, 0, 0)" stroke="none" font-family="Arial" font-size="18px" font-style="normal" font-weight="normal" text-decoration="" line-height="20.5px" x="172.078125" y="37">before</text><text fill="rgb(0, 0, 0)" stroke="none" font-family="Arial" font-size="18px" font-style="normal" font-weight="normal" text-decoration="" line-height="20.5px" x="228.125" y="37">the</text><text fill="rgb(0, 0, 0)" stroke="none" font-family="Arial" font-size="18px" font-style="normal" font-weight="normal" text-decoration="" line-height="20.5px" x="258.140625" y="37">feature</text><text fill="rgb(0, 0, 0)" stroke="none" font-family="Arial" font-size="18px" font-style="normal" font-weight="normal" text-decoration="" line-height="20.5px" x="319.1875" y="37">is</text><text fill="rgb(0, 0, 0)" stroke="none" font-family="Arial" font-size="18px" font-style="normal" font-weight="normal" text-decoration="" line-height="20.5px" x="337.1875" y="37">merged</text><text fill="rgb(0, 0, 0)" stroke="none" font-family="Arial" font-size="18px" font-style="normal" font-weight="normal" text-decoration="" line-height="20.5px" x="403.21875" y="37">into</text><text fill="rgb(0, 0, 0)" stroke="none" font-family="Arial" font-size="18px" font-style="normal" font-weight="normal" text-decoration="" line-height="20.5px" x="437.234375" y="37">the</text><text fill="rgb(0, 0, 0)" stroke="none" font-family="Arial" font-size="18px" font-style="normal" font-weight="normal" text-decoration="" line-height="20.5px" x="467.265625" y="37">root</text><text fill="rgb(0, 0, 0)" stroke="none" font-family="Arial" font-size="18px" font-style="normal" font-weight="normal" text-decoration="" line-height="20.5px" x="503.28125" y="37">repository</text><text fill="rgb(0, 0, 0)" stroke="none" font-family="Arial" font-size="18px" font-style="normal" font-weight="normal" text-decoration="" line-height="20.5px" x="580.96875" y="37">.</text></g></g></g></svg>