<svg version="1.1" xmlns="http://www.w3.org/2000/svg" xmlns:xlink="http://www.w3.org/1999/xlink" width="831.7893979998557" height="700"><style xmlns="http://www.w3.org/1999/xhtml"></style><defs/><g transform="translate(0,0)"><g><rect fill="#FFFFFF" stroke="none" x="0" y="0" width="831.7893979998557" height="700"/></g><g transform="translate(0,0) matrix(1,0,0,1,50,40)"><g><g transform="translate(0,0) scale(6.9,1.8)"><g><path fill="#FFFFFF" stroke="none" stroke-dasharray="8,8" d="M 0 0 L 100 0 Q 100 0 100 0 L 100 100 Q 100 100 100 100 L 0 100 Q 0 100 0 100 L 0 0 Q 0 0 0 0 Z"/><g transform="scale(0.14492753623188406,0.5555555555555556)"><path fill="none" stroke="none" stroke-dasharray="8,8" d="M 0 0 L 690 0 Q 690 0 690 0 L 690 180 Q 690 180 690 180 L 0 180 Q 0 180 0 180 L 0 0 Q 0 0 0 0 Z"/><path fill="none" stroke="#333333" stroke-dasharray="8,8" d="M 0 0 L 690 0 Q 690 0 690 0 L 690 180 Q 690 180 690 180 L 0 180 Q 0 180 0 180 L 0 0 Q 0 0 0 0 Z" stroke-miterlimit="10" stroke-width="2"/></g></g></g></g></g><g transform="translate(0,0) matrix(1,0,0,1,170,118.62772424426035)"><g><g transform="translate(0,0) scale(4.5,0.6)"><g><path fill="#FFFFFF" stroke="none" stroke-dasharray="1.7976931348623157e+308" d="M 0 0 L 100 0 Q 100 0 100 0 L 100 100 Q 100 100 100 100 L 0 100 Q 0 100 0 100 L 0 0 Q 0 0 0 0 Z"/><g transform="scale(0.2222222222222222,1.6666666666666667)"><path fill="none" stroke="none" stroke-dasharray="1.7976931348623157e+308" d="M 0 0 L 450 0 Q 450 0 450 0 L 450 60 Q 450 60 450 60 L 0 60 Q 0 60 0 60 L 0 0 Q 0 0 0 0 Z"/><path fill="none" stroke="#333333" stroke-dasharray="1.7976931348623157e+308" d="M 0 0 L 450 0 Q 450 0 450 0 L 450 60 Q 450 60 450 60 L 0 60 Q 0 60 0 60 L 0 0 Q 0 0 0 0 Z" stroke-miterlimit="10" stroke-width="2"/></g></g></g></g></g><g transform="matrix(1,0,0,1,180,139)"><g><g><rect fill="rgb(0,0,0)" stroke="none" x="0" y="0" width="431" height="19" fill-opacity="0"/></g></g><g><g><rect fill="rgb(0,0,0)" stroke="none" x="0" y="0" width="431" height="19" fill-opacity="0"/></g></g><g><g><rect fill="rgb(0,0,0)" stroke="none" x="150.640625" y="0" width="129" height="19" fill-opacity="0"/></g></g><g><g><rect fill="rgb(0,0,0)" stroke="none" x="150.640625" y="0" width="129" height="19" fill-opacity="0"/></g><text fill="rgb(109, 158, 235)" stroke="none" font-family="Verdana" font-size="16px" font-style="normal" font-weight="700" text-decoration="" line-height="19.75px" x="150.640625" y="17">Master</text><text fill="rgb(109, 158, 235)" stroke="none" font-family="Verdana" font-size="16px" font-style="normal" font-weight="700" text-decoration="" line-height="19.75px" x="217.3125" y="17">Branch</text></g></g><g transform="translate(0,0) matrix(1,0,0,1,50,310)"><g><g transform="translate(0,0) scale(6.9,3.7)"><g><path fill="#FFFFFF" stroke="none" stroke-dasharray="8,8" d="M 0 0 L 100 0 Q 100 0 100 0 L 100 100 Q 100 100 100 100 L 0 100 Q 0 100 0 100 L 0 0 Q 0 0 0 0 Z"/><g transform="scale(0.14492753623188406,0.27027027027027023)"><path fill="none" stroke="none" stroke-dasharray="8,8" d="M 0 0 L 690 0 Q 690 0 690 0 L 690 370 Q 690 370 690 370 L 0 370 Q 0 370 0 370 L 0 0 Q 0 0 0 0 Z"/><path fill="none" stroke="#333333" stroke-dasharray="8,8" d="M 0 0 L 690 0 Q 690 0 690 0 L 690 370 Q 690 370 690 370 L 0 370 Q 0 370 0 370 L 0 0 Q 0 0 0 0 Z" stroke-miterlimit="10" stroke-width="2"/></g></g></g></g></g><g transform="translate(0,0) matrix(1,0,0,1,170,381.1277242442604)"><g><g transform="translate(0,0) scale(4.5,0.6)"><g><path fill="#FFFFFF" stroke="none" stroke-dasharray="1.7976931348623157e+308" d="M 0 0 L 100 0 Q 100 0 100 0 L 100 100 Q 100 100 100 100 L 0 100 Q 0 100 0 100 L 0 0 Q 0 0 0 0 Z"/><g transform="scale(0.2222222222222222,1.6666666666666667)"><path fill="none" stroke="none" stroke-dasharray="1.7976931348623157e+308" d="M 0 0 L 450 0 Q 450 0 450 0 L 450 60 Q 450 60 450 60 L 0 60 Q 0 60 0 60 L 0 0 Q 0 0 0 0 Z"/><path fill="none" stroke="#333333" stroke-dasharray="1.7976931348623157e+308" d="M 0 0 L 450 0 Q 450 0 450 0 L 450 60 Q 450 60 450 60 L 0 60 Q 0 60 0 60 L 0 0 Q 0 0 0 0 Z" stroke-miterlimit="10" stroke-width="2"/></g></g></g></g></g><g transform="matrix(1,0,0,1,180,402)"><g><g><rect fill="rgb(0,0,0)" stroke="none" x="0" y="0" width="431" height="19" fill-opacity="0"/></g></g><g><g><rect fill="rgb(0,0,0)" stroke="none" x="0" y="0" width="431" height="19" fill-opacity="0"/></g></g><g><g><rect fill="rgb(0,0,0)" stroke="none" x="150.640625" y="0" width="129" height="19" fill-opacity="0"/></g></g><g><g><rect fill="rgb(0,0,0)" stroke="none" x="150.640625" y="0" width="129" height="19" fill-opacity="0"/></g><text fill="rgb(109, 158, 235)" stroke="none" font-family="Verdana" font-size="16px" font-style="normal" font-weight="700" text-decoration="" line-height="19.75px" x="150.640625" y="17">Master</text><text fill="rgb(109, 158, 235)" stroke="none" font-family="Verdana" font-size="16px" font-style="normal" font-weight="700" text-decoration="" line-height="19.75px" x="217.3125" y="17">Branch</text></g></g><g transform="matrix(1,0,0,1,221,331)"><g><g><rect fill="rgb(0,0,0)" stroke="none" x="0" y="0" width="367" height="33" fill-opacity="0"/></g></g><g><g><rect fill="rgb(0,0,0)" stroke="none" x="0" y="0" width="367" height="19" fill-opacity="0"/></g></g><g><g><rect fill="rgb(0,0,0)" stroke="none" x="45.859375" y="0" width="275" height="19" fill-opacity="0"/></g><text fill="rgb(109, 158, 235)" stroke="none" font-family="Verdana" font-size="16px" font-style="normal" font-weight="700" text-decoration="" line-height="19.75px" x="45.859375" y="17">downstream</text><text fill="rgb(109, 158, 235)" stroke="none" font-family="Verdana" font-size="16px" font-style="normal" font-weight="700" text-decoration="" line-height="19.75px" x="158.078125" y="17">-</text><text fill="rgb(109, 158, 235)" stroke="none" font-family="Verdana" font-size="16px" font-style="normal" font-weight="700" text-decoration="" line-height="19.75px" x="165.75" y="17">fork</text><text fill="rgb(109, 158, 235)" stroke="none" font-family="Verdana" font-size="16px" font-style="normal" font-weight="700" text-decoration="" line-height="19.75px" x="202.1875" y="17">/</text><text fill="rgb(109, 158, 235)" stroke="none" font-family="Verdana" font-size="16px" font-style="normal" font-weight="700" text-decoration="" line-height="19.75px" x="213.21875" y="17">Classy</text><text fill="rgb(109, 158, 235)" stroke="none" font-family="Verdana" font-size="16px" font-style="normal" font-weight="700" text-decoration="" line-height="19.75px" x="275.8125" y="17">Repo</text></g><g><g><rect fill="rgb(0,0,0)" stroke="none" x="0" y="19" width="367" height="14" fill-opacity="0"/></g></g><g><g><rect fill="rgb(0,0,0)" stroke="none" x="181.828125" y="19" width="3" height="14" fill-opacity="0"/></g></g><g><g><rect fill="rgb(0,0,0)" stroke="none" x="181.828125" y="19" width="3" height="14" fill-opacity="0"/></g></g></g><g transform="matrix(1,0,0,1,237,80)"><g><g><rect fill="rgb(0,0,0)" stroke="none" x="0" y="0" width="335" height="19" fill-opacity="0"/></g></g><g><g><rect fill="rgb(0,0,0)" stroke="none" x="0" y="0" width="335" height="19" fill-opacity="0"/></g></g><g><g><rect fill="rgb(0,0,0)" stroke="none" x="66.515625" y="0" width="201" height="19" fill-opacity="0"/></g></g><g><g><rect fill="rgb(0,0,0)" stroke="none" x="66.515625" y="0" width="201" height="19" fill-opacity="0"/></g><text fill="rgb(109, 158, 235)" stroke="none" font-family="Verdana" font-size="16px" font-style="normal" font-weight="700" text-decoration="" line-height="19.75px" x="66.515625" y="17">UBCCPSC</text><text fill="rgb(109, 158, 235)" stroke="none" font-family="Verdana" font-size="16px" font-style="normal" font-weight="700" text-decoration="" line-height="19.75px" x="149.515625" y="17">/</text><text fill="rgb(109, 158, 235)" stroke="none" font-family="Verdana" font-size="16px" font-style="normal" font-weight="700" text-decoration="" line-height="19.75px" x="160.546875" y="17">Classy</text><text fill="rgb(109, 158, 235)" stroke="none" font-family="Verdana" font-size="16px" font-style="normal" font-weight="700" text-decoration="" line-height="19.75px" x="223.15625" y="17">Repo</text></g></g><g transform="translate(0,0) matrix(1,0,0,1,170,464.99999999999994)"><g><g transform="translate(0,0) scale(4.5,0.6)"><g><path fill="#FFFFFF" stroke="none" stroke-dasharray="1.7976931348623157e+308" d="M 0 0 L 100 0 Q 100 0 100 0 L 100 100 Q 100 100 100 100 L 0 100 Q 0 100 0 100 L 0 0 Q 0 0 0 0 Z"/><g transform="scale(0.2222222222222222,1.6666666666666667)"><path fill="none" stroke="none" stroke-dasharray="1.7976931348623157e+308" d="M 0 0 L 450 0 Q 450 0 450 0 L 450 60 Q 450 60 450 60 L 0 60 Q 0 60 0 60 L 0 0 Q 0 0 0 0 Z"/><path fill="none" stroke="#333333" stroke-dasharray="1.7976931348623157e+308" d="M 0 0 L 450 0 Q 450 0 450 0 L 450 60 Q 450 60 450 60 L 0 60 Q 0 60 0 60 L 0 0 Q 0 0 0 0 Z" stroke-miterlimit="10" stroke-width="2"/></g></g></g></g></g><g transform="matrix(1,0,0,1,180,485)"><g><g><rect fill="rgb(0,0,0)" stroke="none" x="0" y="0" width="431" height="19" fill-opacity="0"/></g></g><g><g><rect fill="rgb(0,0,0)" stroke="none" x="0" y="0" width="431" height="19" fill-opacity="0"/></g></g><g><g><rect fill="rgb(0,0,0)" stroke="none" x="98.578125" y="0" width="233" height="19" fill-opacity="0"/></g></g><g><g><rect fill="rgb(0,0,0)" stroke="none" x="98.578125" y="0" width="233" height="19" fill-opacity="0"/></g><text fill="rgb(109, 158, 235)" stroke="none" font-family="Verdana" font-size="16px" font-style="normal" font-weight="700" text-decoration="" line-height="19.75px" x="98.578125" y="17">(</text><text fill="rgb(109, 158, 235)" stroke="none" font-family="Verdana" font-size="16px" font-style="normal" font-weight="700" text-decoration="" line-height="19.75px" x="107.265625" y="17">Optional</text><text fill="rgb(109, 158, 235)" stroke="none" font-family="Verdana" font-size="16px" font-style="normal" font-weight="700" text-decoration="" line-height="19.75px" x="183.359375" y="17">)</text><text fill="rgb(109, 158, 235)" stroke="none" font-family="Verdana" font-size="16px" font-style="normal" font-weight="700" text-decoration="" line-height="19.75px" x="197.515625" y="17">Testing</text><text fill="rgb(109, 158, 235)" stroke="none" font-family="Verdana" font-size="16px" font-style="normal" font-weight="700" text-decoration="" line-height="19.75px" x="269.359375" y="17">Branch</text></g></g><g transform="translate(0,0) matrix(1,0,0,1,170,551.1277242442604)"><g><g transform="translate(0,0) scale(4.5,0.6)"><g><path fill="#FFFFFF" stroke="none" stroke-dasharray="1.7976931348623157e+308" d="M 0 0 L 100 0 Q 100 0 100 0 L 100 100 Q 100 100 100 100 L 0 100 Q 0 100 0 100 L 0 0 Q 0 0 0 0 Z"/><g transform="scale(0.2222222222222222,1.6666666666666667)"><path fill="none" stroke="none" stroke-dasharray="1.7976931348623157e+308" d="M 0 0 L 450 0 Q 450 0 450 0 L 450 60 Q 450 60 450 60 L 0 60 Q 0 60 0 60 L 0 0 Q 0 0 0 0 Z"/><path fill="none" stroke="#333333" stroke-dasharray="1.7976931348623157e+308" d="M 0 0 L 450 0 Q 450 0 450 0 L 450 60 Q 450 60 450 60 L 0 60 Q 0 60 0 60 L 0 0 Q 0 0 0 0 Z" stroke-miterlimit="10" stroke-width="2"/></g></g></g></g></g><g transform="matrix(1,0,0,1,180,572)"><g><g><rect fill="rgb(0,0,0)" stroke="none" x="0" y="0" width="431" height="19" fill-opacity="0"/></g></g><g><g><rect fill="rgb(0,0,0)" stroke="none" x="0" y="0" width="431" height="19" fill-opacity="0"/></g></g><g><g><rect fill="rgb(0,0,0)" stroke="none" x="146.75" y="0" width="137" height="19" fill-opacity="0"/></g></g><g><g><rect fill="rgb(0,0,0)" stroke="none" x="146.75" y="0" width="137" height="19" fill-opacity="0"/></g><text fill="rgb(109, 158, 235)" stroke="none" font-family="Verdana" font-size="16px" font-style="normal" font-weight="700" text-decoration="" line-height="19.75px" x="146.75" y="17">Feature</text><text fill="rgb(109, 158, 235)" stroke="none" font-family="Verdana" font-size="16px" font-style="normal" font-weight="700" text-decoration="" line-height="19.75px" x="221.203125" y="17">Branch</text></g></g><g transform="translate(0.5,0.5) matrix(-1.8369701987210297e-16,-1,1,-1.8369701987210297e-16,518.0959294868507,579.223653731111)"><g><g transform="translate(0,0) scale(0.7182595059516272,0.7182654914475103)"><g><g><path fill="#6d9eeb" stroke="rgb(0,0,0)" stroke-dasharray="1.7976931348623157e+308" d="M 91.772 83.011 C 59.114 80.697 32.467 50.73 14.25 25.349 C 8.368 17.153 0 0 0 0 C 0 0 6.694 8.22 10.214 12.035 C 28.401 34.356 59.374 55.64 91.73 55.558 L 91.726 41.095 L 120.001 69.057 L 91.794 97.457 L 91.772 83.011 Z" stroke-opacity="0" stroke-miterlimit="10"/></g></g></g></g></g><g transform="translate(0.5,0.5) matrix(-1.8369701987210297e-16,-1,1,-1.8369701987210297e-16,608.0959294868505,579.223653731111)"><g><g transform="translate(0,0) scale(1.6417360136037198,1.6417496947371661)"><g><g><path fill="#6d9eeb" stroke="rgb(0,0,0)" stroke-dasharray="1.7976931348623157e+308" d="M 91.772 83.011 C 59.114 80.697 32.467 50.73 14.25 25.349 C 8.368 17.153 0 0 0 0 C 0 0 6.694 8.22 10.214 12.035 C 28.401 34.356 59.374 55.64 91.73 55.558 L 91.726 41.095 L 120.001 69.057 L 91.794 97.457 L 91.772 83.011 Z" stroke-opacity="0" stroke-miterlimit="10"/></g></g></g></g></g><g transform="translate(0.5,0.5) matrix(-0.8660254037844386,-0.5000000000000001,0.5000000000000001,-0.8660254037844386,721.7893979998557,373.35133853797885)"><g><g transform="translate(0,0) scale(1.8469530153041847,1.846968406579312)"><g><g><path fill="#6d9eeb" stroke="rgb(0,0,0)" stroke-dasharray="1.7976931348623157e+308" d="M 91.772 83.011 C 59.114 80.697 32.467 50.73 14.25 25.349 C 8.368 17.153 0 0 0 0 C 0 0 6.694 8.22 10.214 12.035 C 28.401 34.356 59.374 55.64 91.73 55.558 L 91.726 41.095 L 120.001 69.057 L 91.794 97.457 L 91.772 83.011 Z" stroke-opacity="0" stroke-miterlimit="10"/></g></g></g></g></g></g></svg>