<svg version="1.1" xmlns="http://www.w3.org/2000/svg" xmlns:xlink="http://www.w3.org/1999/xlink" width="760" height="463.87227575573957"><style xmlns="http://www.w3.org/1999/xhtml"></style><defs/><g transform="translate(0,0)"><g><rect fill="#FFFFFF" stroke="none" x="0" y="0" width="760" height="463.87227575573957"/></g><g transform="translate(0,0) matrix(1,0,0,1,50,40)"><g><g transform="translate(0,0) scale(6.9,1.8)"><g><path fill="#FFFFFF" stroke="none" stroke-dasharray="8,8" d="M 0 0 L 100 0 Q 100 0 100 0 L 100 100 Q 100 100 100 100 L 0 100 Q 0 100 0 100 L 0 0 Q 0 0 0 0 Z"/><g transform="scale(0.14492753623188406,0.5555555555555556)"><path fill="none" stroke="none" stroke-dasharray="8,8" d="M 0 0 L 690 0 Q 690 0 690 0 L 690 180 Q 690 180 690 180 L 0 180 Q 0 180 0 180 L 0 0 Q 0 0 0 0 Z"/><path fill="none" stroke="#333333" stroke-dasharray="8,8" d="M 0 0 L 690 0 Q 690 0 690 0 L 690 180 Q 690 180 690 180 L 0 180 Q 0 180 0 180 L 0 0 Q 0 0 0 0 Z" stroke-miterlimit="10" stroke-width="2"/></g></g></g></g></g><g transform="translate(0,0) matrix(1,0,0,1,170,118.62772424426035)"><g><g transform="translate(0,0) scale(4.5,0.6)"><g><path fill="#FFFFFF" stroke="none" stroke-dasharray="1.7976931348623157e+308" d="M 0 0 L 100 0 Q 100 0 100 0 L 100 100 Q 100 100 100 100 L 0 100 Q 0 100 0 100 L 0 0 Q 0 0 0 0 Z"/><g transform="scale(0.2222222222222222,1.6666666666666667)"><path fill="none" stroke="none" stroke-dasharray="1.7976931348623157e+308" d="M 0 0 L 450 0 Q 450 0 450 0 L 450 60 Q 450 60 450 60 L 0 60 Q 0 60 0 60 L 0 0 Q 0 0 0 0 Z"/><path fill="none" stroke="#333333" stroke-dasharray="1.7976931348623157e+308" d="M 0 0 L 450 0 Q 450 0 450 0 L 450 60 Q 450 60 450 60 L 0 60 Q 0 60 0 60 L 0 0 Q 0 0 0 0 Z" stroke-miterlimit="10" stroke-width="2"/></g></g></g></g></g><g transform="matrix(1,0,0,1,180,139)"><g><g><rect fill="rgb(0,0,0)" stroke="none" x="0" y="0" width="431" height="19" fill-opacity="0"/></g></g><g><g><rect fill="rgb(0,0,0)" stroke="none" x="0" y="0" width="431" height="19" fill-opacity="0"/></g></g><g><g><rect fill="rgb(0,0,0)" stroke="none" x="150.640625" y="0" width="129" height="19" fill-opacity="0"/></g></g><g><g><rect fill="rgb(0,0,0)" stroke="none" x="150.640625" y="0" width="129" height="19" fill-opacity="0"/></g><text fill="rgb(109, 158, 235)" stroke="none" font-family="Verdana" font-size="16px" font-style="normal" font-weight="700" text-decoration="" line-height="19.75px" x="150.640625" y="17">Master</text><text fill="rgb(109, 158, 235)" stroke="none" font-family="Verdana" font-size="16px" font-style="normal" font-weight="700" text-decoration="" line-height="19.75px" x="217.3125" y="17">Branch</text></g></g><g transform="translate(0,0) matrix(1,0,0,1,50,258.8722757557396)"><g><g transform="translate(0,0) scale(6.9,1.8499999999999996)"><g><path fill="#FFFFFF" stroke="none" stroke-dasharray="8,8" d="M 0 0 L 100 0 Q 100 0 100 0 L 100 100 Q 100 100 100 100 L 0 100 Q 0 100 0 100 L 0 0 Q 0 0 0 0 Z"/><g transform="scale(0.14492753623188406,0.5405405405405407)"><path fill="none" stroke="none" stroke-dasharray="8,8" d="M 0 0 L 690 0 Q 690 0 690 0 L 690 184.99999999999997 Q 690 184.99999999999997 690 184.99999999999997 L 0 184.99999999999997 Q 0 184.99999999999997 0 184.99999999999997 L 0 0 Q 0 0 0 0 Z"/><path fill="none" stroke="#333333" stroke-dasharray="8,8" d="M 0 0 L 690 0 Q 690 0 690 0 L 690 184.99999999999997 Q 690 184.99999999999997 690 184.99999999999997 L 0 184.99999999999997 Q 0 184.99999999999997 0 184.99999999999997 L 0 0 Q 0 0 0 0 Z" stroke-miterlimit="10" stroke-width="2"/></g></g></g></g></g><g transform="translate(0,0) matrix(1,0,0,1,170,330)"><g><g transform="translate(0,0) scale(4.5,0.6)"><g><path fill="#FFFFFF" stroke="none" stroke-dasharray="1.7976931348623157e+308" d="M 0 0 L 100 0 Q 100 0 100 0 L 100 100 Q 100 100 100 100 L 0 100 Q 0 100 0 100 L 0 0 Q 0 0 0 0 Z"/><g transform="scale(0.2222222222222222,1.6666666666666667)"><path fill="none" stroke="none" stroke-dasharray="1.7976931348623157e+308" d="M 0 0 L 450 0 Q 450 0 450 0 L 450 60 Q 450 60 450 60 L 0 60 Q 0 60 0 60 L 0 0 Q 0 0 0 0 Z"/><path fill="none" stroke="#333333" stroke-dasharray="1.7976931348623157e+308" d="M 0 0 L 450 0 Q 450 0 450 0 L 450 60 Q 450 60 450 60 L 0 60 Q 0 60 0 60 L 0 0 Q 0 0 0 0 Z" stroke-miterlimit="10" stroke-width="2"/></g></g></g></g></g><g transform="matrix(1,0,0,1,180,351)"><g><g><rect fill="rgb(0,0,0)" stroke="none" x="0" y="0" width="431" height="19" fill-opacity="0"/></g></g><g><g><rect fill="rgb(0,0,0)" stroke="none" x="0" y="0" width="431" height="19" fill-opacity="0"/></g></g><g><g><rect fill="rgb(0,0,0)" stroke="none" x="150.640625" y="0" width="129" height="19" fill-opacity="0"/></g></g><g><g><rect fill="rgb(0,0,0)" stroke="none" x="150.640625" y="0" width="129" height="19" fill-opacity="0"/></g><text fill="rgb(109, 158, 235)" stroke="none" font-family="Verdana" font-size="16px" font-style="normal" font-weight="700" text-decoration="" line-height="19.75px" x="150.640625" y="17">Master</text><text fill="rgb(109, 158, 235)" stroke="none" font-family="Verdana" font-size="16px" font-style="normal" font-weight="700" text-decoration="" line-height="19.75px" x="217.3125" y="17">Branch</text></g></g><g transform="translate(0.5,0.5) matrix(0.2588190451025205,0.9659258262890683,-0.9659258262890683,0.2588190451025205,241.49857217875154,148.62772424426035)"><g><g transform="translate(0,0) scale(1.4365190119032545,1.4365309828950206)"><g><g><path fill="#6d9eeb" stroke="rgb(0,0,0)" stroke-dasharray="1.7976931348623157e+308" d="M 91.772 83.011 C 59.114 80.697 32.467 50.73 14.25 25.349 C 8.368 17.153 0 0 0 0 C 0 0 6.694 8.22 10.214 12.035 C 28.401 34.356 59.374 55.64 91.73 55.558 L 91.726 41.095 L 120.001 69.057 L 91.794 97.457 L 91.772 83.011 Z" stroke-opacity="0" stroke-miterlimit="10"/></g></g></g></g></g><g transform="matrix(1,0,0,1,221,280)"><g><g><rect fill="rgb(0,0,0)" stroke="none" x="0" y="0" width="367" height="33" fill-opacity="0"/></g></g><g><g><rect fill="rgb(0,0,0)" stroke="none" x="0" y="0" width="367" height="19" fill-opacity="0"/></g></g><g><g><rect fill="rgb(0,0,0)" stroke="none" x="45.859375" y="0" width="275" height="19" fill-opacity="0"/></g><text fill="rgb(109, 158, 235)" stroke="none" font-family="Verdana" font-size="16px" font-style="normal" font-weight="700" text-decoration="" line-height="19.75px" x="45.859375" y="17">downstream</text><text fill="rgb(109, 158, 235)" stroke="none" font-family="Verdana" font-size="16px" font-style="normal" font-weight="700" text-decoration="" line-height="19.75px" x="158.078125" y="17">-</text><text fill="rgb(109, 158, 235)" stroke="none" font-family="Verdana" font-size="16px" font-style="normal" font-weight="700" text-decoration="" line-height="19.75px" x="165.75" y="17">fork</text><text fill="rgb(109, 158, 235)" stroke="none" font-family="Verdana" font-size="16px" font-style="normal" font-weight="700" text-decoration="" line-height="19.75px" x="202.1875" y="17">/</text><text fill="rgb(109, 158, 235)" stroke="none" font-family="Verdana" font-size="16px" font-style="normal" font-weight="700" text-decoration="" line-height="19.75px" x="213.21875" y="17">Classy</text><text fill="rgb(109, 158, 235)" stroke="none" font-family="Verdana" font-size="16px" font-style="normal" font-weight="700" text-decoration="" line-height="19.75px" x="275.8125" y="17">Repo</text></g><g><g><rect fill="rgb(0,0,0)" stroke="none" x="0" y="19" width="367" height="14" fill-opacity="0"/></g></g><g><g><rect fill="rgb(0,0,0)" stroke="none" x="181.828125" y="19" width="3" height="14" fill-opacity="0"/></g></g><g><g><rect fill="rgb(0,0,0)" stroke="none" x="181.828125" y="19" width="3" height="14" fill-opacity="0"/></g></g></g><g transform="matrix(1,0,0,1,237,80)"><g><g><rect fill="rgb(0,0,0)" stroke="none" x="0" y="0" width="335" height="19" fill-opacity="0"/></g></g><g><g><rect fill="rgb(0,0,0)" stroke="none" x="0" y="0" width="335" height="19" fill-opacity="0"/></g></g><g><g><rect fill="rgb(0,0,0)" stroke="none" x="66.515625" y="0" width="201" height="19" fill-opacity="0"/></g></g><g><g><rect fill="rgb(0,0,0)" stroke="none" x="66.515625" y="0" width="201" height="19" fill-opacity="0"/></g><text fill="rgb(109, 158, 235)" stroke="none" font-family="Verdana" font-size="16px" font-style="normal" font-weight="700" text-decoration="" line-height="19.75px" x="66.515625" y="17">UBCCPSC</text><text fill="rgb(109, 158, 235)" stroke="none" font-family="Verdana" font-size="16px" font-style="normal" font-weight="700" text-decoration="" line-height="19.75px" x="149.515625" y="17">/</text><text fill="rgb(109, 158, 235)" stroke="none" font-family="Verdana" font-size="16px" font-style="normal" font-weight="700" text-decoration="" line-height="19.75px" x="160.546875" y="17">Classy</text><text fill="rgb(109, 158, 235)" stroke="none" font-family="Verdana" font-size="16px" font-style="normal" font-weight="700" text-decoration="" line-height="19.75px" x="223.15625" y="17">Repo</text></g></g></g></svg>