<svg version="1.1" xmlns="http://www.w3.org/2000/svg" xmlns:xlink="http://www.w3.org/1999/xlink" width="906" height="685"><style xmlns="http://www.w3.org/1999/xhtml"></style><defs/><g transform="translate(0,0)"><g><rect fill="#FFFFFF" stroke="none" x="0" y="0" width="906" height="685"/></g><g transform="translate(0,0) matrix(1,0,0,1,10,465)"><g><g transform="translate(0,0) scale(8.7,0.9)"><g><path fill="#3c78d8" stroke="none" stroke-dasharray="1.7976931348623157e+308" d="M 0 0 L 100 0 Q 100 0 100 0 L 100 100 Q 100 100 100 100 L 0 100 Q 0 100 0 100 L 0 0 Q 0 0 0 0 Z"/><g transform="scale(0.1149425287356322,1.1111111111111112)"><path fill="none" stroke="none" stroke-dasharray="1.7976931348623157e+308" d="M 0 0 L 869.9999999999999 0 Q 869.9999999999999 0 869.9999999999999 0 L 869.9999999999999 90 Q 869.9999999999999 90 869.9999999999999 90 L 0 90 Q 0 90 0 90 L 0 0 Q 0 0 0 0 Z"/><path fill="none" stroke="#333333" stroke-dasharray="1.7976931348623157e+308" d="M 0 0 L 869.9999999999999 0 Q 869.9999999999999 0 869.9999999999999 0 L 869.9999999999999 90 Q 869.9999999999999 90 869.9999999999999 90 L 0 90 Q 0 90 0 90 L 0 0 Q 0 0 0 0 Z" stroke-miterlimit="10" stroke-width="2"/></g></g></g></g></g><g transform="matrix(1,0,0,1,20,498)"><g><g><rect fill="rgb(0,0,0)" stroke="none" x="0" y="0" width="851" height="24" fill-opacity="0"/></g></g><g><g><rect fill="rgb(0,0,0)" stroke="none" x="0" y="0" width="851" height="24" fill-opacity="0"/></g></g><g><g><rect fill="rgb(0,0,0)" stroke="none" x="386.125" y="0" width="79" height="24" fill-opacity="0"/></g></g><g><g><rect fill="rgb(0,0,0)" stroke="none" x="386.125" y="0" width="79" height="24" fill-opacity="0"/></g><text fill="rgb(255, 255, 255)" stroke="none" font-family="Verdana" font-size="20px" font-style="normal" font-weight="700" text-decoration="" line-height="24.25px" x="386.125" y="21">Docker</text></g></g><g transform="translate(0,0) matrix(1,0,0,1,10,575)"><g><g transform="translate(0,0) scale(8.7,0.9)"><g><path fill="#6aa84f" stroke="none" stroke-dasharray="1.7976931348623157e+308" d="M 0 0 L 100 0 Q 100 0 100 0 L 100 100 Q 100 100 100 100 L 0 100 Q 0 100 0 100 L 0 0 Q 0 0 0 0 Z"/><g transform="scale(0.1149425287356322,1.1111111111111112)"><path fill="none" stroke="none" stroke-dasharray="1.7976931348623157e+308" d="M 0 0 L 869.9999999999999 0 Q 869.9999999999999 0 869.9999999999999 0 L 869.9999999999999 90 Q 869.9999999999999 90 869.9999999999999 90 L 0 90 Q 0 90 0 90 L 0 0 Q 0 0 0 0 Z"/><path fill="none" stroke="#333333" stroke-dasharray="1.7976931348623157e+308" d="M 0 0 L 869.9999999999999 0 Q 869.9999999999999 0 869.9999999999999 0 L 869.9999999999999 90 Q 869.9999999999999 90 869.9999999999999 90 L 0 90 Q 0 90 0 90 L 0 0 Q 0 0 0 0 Z" stroke-miterlimit="10" stroke-width="2"/></g></g></g></g></g><g transform="matrix(1,0,0,1,20,609)"><g><g><rect fill="rgb(0,0,0)" stroke="none" x="0" y="0" width="851" height="22" fill-opacity="0"/></g></g><g><g><rect fill="rgb(0,0,0)" stroke="none" x="0" y="0" width="851" height="22" fill-opacity="0"/></g></g><g><g><rect fill="rgb(0,0,0)" stroke="none" x="308.703125" y="0" width="233" height="22" fill-opacity="0"/></g></g><g><g><rect fill="rgb(0,0,0)" stroke="none" x="308.703125" y="0" width="233" height="22" fill-opacity="0"/></g><text fill="rgb(255, 255, 255)" stroke="none" font-family="Verdana" font-size="18px" font-style="normal" font-weight="700" text-decoration="" line-height="22px" x="308.703125" y="19">Host</text><text fill="rgb(255, 255, 255)" stroke="none" font-family="Verdana" font-size="18px" font-style="normal" font-weight="700" text-decoration="" line-height="22px" x="361.15625" y="19">Operating</text><text fill="rgb(255, 255, 255)" stroke="none" font-family="Verdana" font-size="18px" font-style="normal" font-weight="700" text-decoration="" line-height="22px" x="467.890625" y="19">System</text></g></g><g transform="translate(0,0) matrix(1,0,0,1,670,80.00000000000003)"><g><g transform="translate(0,0) scale(2.1,3.6999999999999993)"><g><path fill="#3c78d8" stroke="none" stroke-dasharray="1.7976931348623157e+308" d="M 0 0 L 100 0 Q 100 0 100 0 L 100 100 Q 100 100 100 100 L 0 100 Q 0 100 0 100 L 0 0 Q 0 0 0 0 Z"/><g transform="scale(0.47619047619047616,0.27027027027027034)"><path fill="none" stroke="none" stroke-dasharray="1.7976931348623157e+308" d="M 0 0 L 210 0 Q 210 0 210 0 L 210 369.99999999999994 Q 210 369.99999999999994 210 369.99999999999994 L 0 369.99999999999994 Q 0 369.99999999999994 0 369.99999999999994 L 0 0 Q 0 0 0 0 Z"/><path fill="none" stroke="#333333" stroke-dasharray="1.7976931348623157e+308" d="M 0 0 L 210 0 Q 210 0 210 0 L 210 369.99999999999994 Q 210 369.99999999999994 210 369.99999999999994 L 0 369.99999999999994 Q 0 369.99999999999994 0 369.99999999999994 L 0 0 Q 0 0 0 0 Z" stroke-miterlimit="10" stroke-width="2"/></g></g></g></g></g><g transform="matrix(1,0,0,1,681,253)"><g><g><rect fill="rgb(0,0,0)" stroke="none" x="0" y="0" width="189" height="24" fill-opacity="0"/></g></g><g><g><rect fill="rgb(0,0,0)" stroke="none" x="0" y="0" width="189" height="24" fill-opacity="0"/></g></g><g><g><rect fill="rgb(0,0,0)" stroke="none" x="41.015625" y="0" width="107" height="24" fill-opacity="0"/></g><text fill="rgb(255, 255, 255)" stroke="none" font-family="Verdana" font-size="20px" font-style="normal" font-weight="700" text-decoration="" line-height="24.25px" x="41.015625" y="21">MongoDB</text></g></g><g transform="translate(0,0) matrix(1,0,0,1,10,80.00000000000003)"><g><g transform="translate(0,0) scale(2.1,3.6999999999999993)"><g><path fill="#3c78d8" stroke="none" stroke-dasharray="1.7976931348623157e+308" d="M 0 0 L 100 0 Q 100 0 100 0 L 100 100 Q 100 100 100 100 L 0 100 Q 0 100 0 100 L 0 0 Q 0 0 0 0 Z"/><g transform="scale(0.47619047619047616,0.27027027027027034)"><path fill="none" stroke="none" stroke-dasharray="1.7976931348623157e+308" d="M 0 0 L 210 0 Q 210 0 210 0 L 210 369.99999999999994 Q 210 369.99999999999994 210 369.99999999999994 L 0 369.99999999999994 Q 0 369.99999999999994 0 369.99999999999994 L 0 0 Q 0 0 0 0 Z"/><path fill="none" stroke="#333333" stroke-dasharray="1.7976931348623157e+308" d="M 0 0 L 210 0 Q 210 0 210 0 L 210 369.99999999999994 Q 210 369.99999999999994 210 369.99999999999994 L 0 369.99999999999994 Q 0 369.99999999999994 0 369.99999999999994 L 0 0 Q 0 0 0 0 Z" stroke-miterlimit="10" stroke-width="2"/></g></g></g></g></g><g transform="matrix(1,0,0,1,21,241)"><g><g><rect fill="rgb(0,0,0)" stroke="none" x="0" y="0" width="189" height="48" fill-opacity="0"/></g></g><g><g><rect fill="rgb(0,0,0)" stroke="none" x="0" y="0" width="189" height="48" fill-opacity="0"/></g></g><g><g><rect fill="rgb(0,0,0)" stroke="none" x="14.96875" y="0" width="159" height="48" fill-opacity="0"/></g><text fill="rgb(255, 255, 255)" stroke="none" font-family="Verdana" font-size="20px" font-style="normal" font-weight="700" text-decoration="" line-height="24.25px" x="14.96875" y="21">Portal</text><text fill="rgb(255, 255, 255)" stroke="none" font-family="Verdana" font-size="20px" font-style="normal" font-weight="700" text-decoration="" line-height="24.25px" x="89.4375" y="21">Front</text><text fill="rgb(255, 255, 255)" stroke="none" font-family="Verdana" font-size="20px" font-style="normal" font-weight="700" text-decoration="" line-height="24.25px" x="149.46875" y="21"> &amp;</text><text fill="rgb(255, 255, 255)" stroke="none" font-family="Verdana" font-size="20px" font-style="normal" font-weight="700" text-decoration="" line-height="24.25px" x="41.625" y="45">Back</text><text fill="rgb(255, 255, 255)" stroke="none" font-family="Verdana" font-size="20px" font-style="normal" font-weight="700" text-decoration="" line-height="24.25px" x="95.390625" y="45">-</text><text fill="rgb(255, 255, 255)" stroke="none" font-family="Verdana" font-size="20px" font-style="normal" font-weight="700" text-decoration="" line-height="24.25px" x="105" y="45">End</text></g></g><g transform="translate(0,0) matrix(1,0,0,1,231,80.00000000000003)"><g><g transform="translate(0,0) scale(2.1,3.6999999999999993)"><g><path fill="#3c78d8" stroke="none" stroke-dasharray="1.7976931348623157e+308" d="M 0 0 L 100 0 Q 100 0 100 0 L 100 100 Q 100 100 100 100 L 0 100 Q 0 100 0 100 L 0 0 Q 0 0 0 0 Z"/><g transform="scale(0.47619047619047616,0.27027027027027034)"><path fill="none" stroke="none" stroke-dasharray="1.7976931348623157e+308" d="M 0 0 L 210 0 Q 210 0 210 0 L 210 369.99999999999994 Q 210 369.99999999999994 210 369.99999999999994 L 0 369.99999999999994 Q 0 369.99999999999994 0 369.99999999999994 L 0 0 Q 0 0 0 0 Z"/><path fill="none" stroke="#333333" stroke-dasharray="1.7976931348623157e+308" d="M 0 0 L 210 0 Q 210 0 210 0 L 210 369.99999999999994 Q 210 369.99999999999994 210 369.99999999999994 L 0 369.99999999999994 Q 0 369.99999999999994 0 369.99999999999994 L 0 0 Q 0 0 0 0 Z" stroke-miterlimit="10" stroke-width="2"/></g></g></g></g></g><g transform="matrix(1,0,0,1,242,241)"><g><g><rect fill="rgb(0,0,0)" stroke="none" x="0" y="0" width="189" height="48" fill-opacity="0"/></g></g><g><g><rect fill="rgb(0,0,0)" stroke="none" x="0" y="0" width="189" height="48" fill-opacity="0"/></g></g><g><g><rect fill="rgb(0,0,0)" stroke="none" x="13" y="0" width="163" height="48" fill-opacity="0"/></g><text fill="rgb(255, 255, 255)" stroke="none" font-family="Verdana" font-size="20px" font-style="normal" font-weight="700" text-decoration="" line-height="24.25px" x="13" y="21">Nginx</text><text fill="rgb(255, 255, 255)" stroke="none" font-family="Verdana" font-size="20px" font-style="normal" font-weight="700" text-decoration="" line-height="24.25px" x="85.203125" y="21">Reverse</text><text fill="rgb(255, 255, 255)" stroke="none" font-family="Verdana" font-size="20px" font-style="normal" font-weight="700" text-decoration="" line-height="24.25px" x="61.890625" y="45">Proxy</text></g></g><g transform="translate(0,0) matrix(1,0,0,1,451,80.00000000000003)"><g><g transform="translate(0,0) scale(2.1,3.6999999999999993)"><g><path fill="#3c78d8" stroke="none" stroke-dasharray="1.7976931348623157e+308" d="M 0 0 L 100 0 Q 100 0 100 0 L 100 100 Q 100 100 100 100 L 0 100 Q 0 100 0 100 L 0 0 Q 0 0 0 0 Z"/><g transform="scale(0.47619047619047616,0.27027027027027034)"><path fill="none" stroke="none" stroke-dasharray="1.7976931348623157e+308" d="M 0 0 L 210 0 Q 210 0 210 0 L 210 369.99999999999994 Q 210 369.99999999999994 210 369.99999999999994 L 0 369.99999999999994 Q 0 369.99999999999994 0 369.99999999999994 L 0 0 Q 0 0 0 0 Z"/><path fill="none" stroke="#333333" stroke-dasharray="1.7976931348623157e+308" d="M 0 0 L 210 0 Q 210 0 210 0 L 210 369.99999999999994 Q 210 369.99999999999994 210 369.99999999999994 L 0 369.99999999999994 Q 0 369.99999999999994 0 369.99999999999994 L 0 0 Q 0 0 0 0 Z" stroke-miterlimit="10" stroke-width="2"/></g></g></g></g></g><g transform="matrix(1,0,0,1,462,253)"><g><g><rect fill="rgb(0,0,0)" stroke="none" x="0" y="0" width="189" height="24" fill-opacity="0"/></g></g><g><g><rect fill="rgb(0,0,0)" stroke="none" x="0" y="0" width="189" height="24" fill-opacity="0"/></g></g><g><g><rect fill="rgb(0,0,0)" stroke="none" x="44" y="0" width="101" height="24" fill-opacity="0"/></g><text fill="rgb(255, 255, 255)" stroke="none" font-family="Verdana" font-size="20px" font-style="normal" font-weight="700" text-decoration="" line-height="24.25px" x="44" y="21">AutoTest</text></g></g><g transform="matrix(1,0,0,1,159,27)"><g><g><rect fill="rgb(0,0,0)" stroke="none" x="0" y="0" width="573" height="58" fill-opacity="0"/></g></g><g><g><rect fill="rgb(0,0,0)" stroke="none" x="0" y="0" width="573" height="24" fill-opacity="0"/></g></g><g><g><rect fill="rgb(0,0,0)" stroke="none" x="26.359375" y="-2" width="521" height="28" fill-opacity="0"/></g></g><g><g><rect fill="rgb(0,0,0)" stroke="none" x="26.359375" y="-2" width="521" height="28" fill-opacity="0"/></g><text fill="rgb(0, 0, 0)" stroke="none" font-family="Helvetica" font-size="24px" font-style="normal" font-weight="normal" text-decoration="" line-height="24px" x="26.359375" y="20">Containerized</text><text fill="rgb(0, 0, 0)" stroke="none" font-family="Helvetica" font-size="24px" font-style="normal" font-weight="normal" text-decoration="" line-height="24px" x="181.109375" y="20">Docker</text><text fill="rgb(0, 0, 0)" stroke="none" font-family="Helvetica" font-size="24px" font-style="normal" font-weight="normal" text-decoration="" line-height="24px" x="263.140625" y="20">Applications</text><text fill="rgb(0, 0, 0)" stroke="none" font-family="Helvetica" font-size="24px" font-style="normal" font-weight="normal" text-decoration="" line-height="24px" x="398.5625" y="20">on</text><text fill="rgb(0, 0, 0)" stroke="none" font-family="Helvetica" font-size="24px" font-style="normal" font-weight="normal" text-decoration="" line-height="24px" x="431.921875" y="20">Classy</text><text fill="rgb(0, 0, 0)" stroke="none" font-family="Helvetica" font-size="24px" font-style="normal" font-weight="normal" text-decoration="" line-height="24px" x="510.609375" y="20">VM</text></g></g></g></svg>